<svg xmlns="http://www.w3.org/2000/svg" width="479.835" height="306.158" viewBox="0 0 479.835 306.158">
  <g id="Group_39803" data-name="Group 39803" transform="translate(-57.65 -45.248)">
    <path id="Path_698" data-name="Path 698" d="M387.658,300.637c-34.16-26.132-85.775-30.743-126.093-13.834-11.1,4.639-24.1-1.693-24.1-12.156V115.106c0-8.56,4.589-16.768,12.616-21.986C291.62,66.086,350.161,69.3,387.658,102.767c37.5-33.465,96.038-36.68,137.574-9.632,8.027,5.217,12.616,13.425,12.616,21.971V274.632c0,10.464-13,16.81-24.1,12.157-40.318-16.895-91.933-12.284-126.093,13.848h0Z" transform="translate(-78.281 -24.724)" fill="#203871" stroke="#e5e5e1" stroke-linecap="round" stroke-linejoin="round" stroke-width="10"/>
    <path id="Path_699" data-name="Path 699" d="M237.468,180.894V340.361c0,10.459,13,16.788,24.1,12.151,40.318-16.9,91.933-12.292,126.093,13.828,34.16-26.12,85.775-30.729,126.093-13.842,11.1,4.652,24.1-1.691,24.1-12.151V180.894M387.658,314.161V116.023" transform="translate(-78.281 -38.247)" fill="#203871" stroke="#e5e5e1" stroke-linecap="round" stroke-linejoin="round" stroke-width="10"/>
    <path id="Path_700" data-name="Path 700" d="M468.427,285.693l24.093-48.855L432.076,148.63l-60.46,88.207,24.092,48.855" transform="translate(-122.503 -48.996)" fill="#f469a9" fill-rule="evenodd"/>
    <path id="Path_701" data-name="Path 701" d="M468.427,285.693l24.093-48.855L432.076,148.63l-60.46,88.207,24.092,48.855" transform="translate(-122.503 -48.996)" fill="#88bef5" stroke="#fff" stroke-linecap="round" stroke-linejoin="round" stroke-width="14.86"/>
    <path id="Path_702" data-name="Path 702" d="M407.028,353.326h73.308V395.5H407.028Z" transform="translate(-134.176 -116.474)" fill="#f469a9" stroke="#fff" stroke-linecap="round" stroke-linejoin="round" stroke-width="14.86" fill-rule="evenodd"/>
    <path id="Path_703" data-name="Path 703" d="M461.779,235.741V148.63" transform="translate(-152.225 -48.996)" fill="#88bef5" stroke="#fff" stroke-linecap="round" stroke-linejoin="round" stroke-width="14.86"/>
    <path id="Path_704" data-name="Path 704" d="M744.915,231.275c-18.49,9.172-43.032-2.621-43.032-2.621s5.455-26.66,23.954-35.82,43.022,2.609,43.022,2.609S763.405,222.1,744.915,231.275Z" transform="translate(-231.375 -62.415)" fill="#ffbb08"/>
    <path id="Path_705" data-name="Path 705" d="M290.512,231.5c10.706,6.416,26.064.485,26.064.485s-2.008-16.331-12.72-22.74-26.057-.493-26.057-.493S279.807,225.086,290.512,231.5Z" transform="translate(-91.576 -67.994)" fill="#fff"/>
    <circle id="Ellipse_1571" data-name="Ellipse 1571" cx="10.096" cy="10.096" r="10.096" transform="translate(495.272 253.094) rotate(180)" fill="#f469a9"/>
    <circle id="Ellipse_1572" data-name="Ellipse 1572" cx="8.311" cy="8.311" r="8.311" transform="translate(136.323 186.768) rotate(180)" fill="#f469a9"/>
    <circle id="Ellipse_1573" data-name="Ellipse 1573" cx="9.465" cy="9.465" r="9.465" transform="translate(150.023 284.978) rotate(180)" fill="#f469a9"/>
    <circle id="Ellipse_1574" data-name="Ellipse 1574" cx="4.417" cy="4.417" r="4.417" transform="translate(424.684 155.007) rotate(180)" fill="#f469a9"/>
    <circle id="Ellipse_1575" data-name="Ellipse 1575" cx="5.679" cy="5.679" r="5.679" transform="translate(142.341 67.981) rotate(180)" fill="#f4fa9c"/>
    <circle id="Ellipse_1576" data-name="Ellipse 1576" cx="8.203" cy="8.203" r="8.203" transform="translate(74.056 264.116) rotate(180)" fill="#f4fa9c"/>
    <circle id="Ellipse_1577" data-name="Ellipse 1577" cx="6.243" cy="6.243" r="6.243" transform="translate(390.354 339.072) rotate(180)" fill="#f4fa9c"/>
    <circle id="Ellipse_1578" data-name="Ellipse 1578" cx="6.941" cy="6.941" r="6.941" transform="translate(419.86 102.94) rotate(180)" fill="#f4fa9c"/>
    <circle id="Ellipse_1579" data-name="Ellipse 1579" cx="6.233" cy="6.233" r="6.233" transform="matrix(0.259, 0.966, -0.966, 0.259, 85.909, 137.006)" fill="#f4fa9c"/>
    <circle id="Ellipse_1580" data-name="Ellipse 1580" cx="8.292" cy="8.292" r="8.292" transform="translate(230.77 99.296) rotate(180)" fill="#f4fa9c"/>
    <ellipse id="Ellipse_1581" data-name="Ellipse 1581" cx="6.378" cy="5.103" rx="6.378" ry="5.103" transform="translate(532.259 303.042) rotate(180)" fill="#f4fa9c"/>
    <circle id="Ellipse_1582" data-name="Ellipse 1582" cx="12.972" cy="12.972" r="12.972" transform="matrix(0.259, 0.966, -0.966, 0.259, 242.772, 319.631)" fill="#f4fa9c"/>
    <path id="Path_706" data-name="Path 706" d="M482.869,287.477h.166c.988,14,11.4,14.215,11.4,14.215s-11.481.224-11.481,16.4c0-16.177-11.481-16.4-11.481-16.4s10.407-.216,11.4-14.215ZM146.885,402.069h.087c.517,7.6,5.96,7.718,5.96,7.718s-6,.122-6,8.9c0-8.782-6-8.9-6-8.9s5.441-.117,5.958-7.718Z" transform="translate(-46.456 -94.766)" fill="#f4fa9c"/>
  </g>
</svg>
