<svg xmlns="http://www.w3.org/2000/svg" viewBox="0 0 774.465 474.582">
  <g id="SvgjsG1008" transform="translate(4212.546 1223.487)">
    <g id="Group_39780" data-name="Group 39780" transform="translate(-4273 -1308)">
      <path id="Path_500" data-name="Path 500" d="M0,0H774.465V474.582H0Z" transform="translate(60.454 84.513)" fill="#fff"/>
      <path id="Path_501" data-name="Path 501" d="M349.034,135.827c94.868-5.37,194.331,22.6,179.711,63.153s78.165-14.4,115.192.218c26.362,10.408,15.824,42.093,28.576,54.861,29.241,29.273,59.148-7.59,96.363,14.529S729.9,497.137,691.02,498.29l-443.442-2.629-31.823-2.79S127.729,445.914,190.7,402.6c42.577-29.29,11.942-50.559,7.311-63.968-5.317-15.4-17.721-42.284,36.33-62.017s40.1-62.668,38.767-71.557S254.17,141.2,349.035,135.827Z" transform="translate(-0.864 -0.695)" fill="#fff"/>
      <path id="Path_502" data-name="Path 502" d="M490.273,515.877c184.614,0,334.273-5.345,334.273-11.938S674.887,492,490.273,492,156,497.345,156,503.938,305.659,515.877,490.273,515.877Z" transform="translate(-0.802 -2.529)" fill="#fff"/>
      <path id="Path_503" data-name="Path 503" d="M191.2,423.135s18.471-34.146,66.837-67.455c34.146-23.52,50.723-84.218,50.723-84.218S240.672,279.31,213.926,323,191.2,423.135,191.2,423.135Z" transform="translate(-0.982 -1.396)" fill="#5f8d70"/>
      <path id="Path_504" data-name="Path 504" d="M191.031,424.234a1,1,0,0,0,.922-.815c7.045-36.944,26.175-64.736,41-81.564,16.071-18.2,30.616-27.785,30.764-27.873a1.02,1.02,0,1,0-1.128-1.7c-.148.088-14.94,9.814-31.177,28.238-15,16.993-34.361,45.112-41.477,82.5a.995.995,0,0,0,.807,1.181,1.711,1.711,0,0,0,.287.032Z" transform="translate(-0.976 -1.605)" fill="#2c447c"/>
      <path id="Path_505" data-name="Path 505" d="M200.161,422.287s5.084-12.312,32.027-11.24c26.942,1.048,42.845,14.857,88.469-15.263,0,0-37.76-27.169-75.93-18.46-38.2,8.685-40.118,23.739-44.567,44.963Z" transform="translate(-1.029 -1.931)" fill="#5f8d70"/>
      <path id="Path_506" data-name="Path 506" d="M200.1,423.384a1.068,1.068,0,0,0,.838-.55c.115-.189,10.716-19.836,29.7-24.7,33.177-8.508,56.8.6,57.036.708a1.036,1.036,0,0,0,1.326-.585,1.048,1.048,0,0,0-.559-1.328c-.239-.087-24.471-9.456-58.306-.772-19.872,5.082-30.538,24.888-30.995,25.721a1.016,1.016,0,0,0,.434,1.389.872.872,0,0,0,.525.117Z" transform="translate(-1.023 -2.018)" fill="#2c447c"/>
      <path id="Path_507" data-name="Path 507" d="M187.729,420.055s1.4-13.237-22.777-25.165S120.214,387.5,94.5,339.261c0,0,46.143-5.845,75.552,20.035,29.406,25.829,23.885,39.978,17.676,60.758Z" transform="translate(-0.486 -1.741)" fill="#5f8d70"/>
      <path id="Path_508" data-name="Path 508" d="M188.072,421.211a1.01,1.01,0,0,0,.936-1c.009-.955.058-23.439-14.952-37.389-25.594-23.778-51.357-27.1-51.591-27.138a1.01,1.01,0,1,0-.244,2c.261.033,25.373,3.3,50.47,26.623,14.373,13.351,14.311,35.655,14.3,35.888a1.016,1.016,0,0,0,1,1.039c0-.026.024-.028.075-.032Z" transform="translate(-0.624 -1.829)" fill="#2c447c"/>
      <path id="Path_509" data-name="Path 509" d="M199.516,511.522c35.115,0,57.461-5.586,53.878-30.326-2.275-15.707-14.518-31.074-23.16-40.226q-1.668-1.762-3.4-3.464c-3.209-3.159-5.365-4.992-5.365-4.992l-.1-.577-.611-3.464-.713-3.99-1.613-9.136-.561-3.191-18.355-.8-19.154.8-.441,3.191-.679,5.026-1.121,8.117-.475,3.464-.069.577s-2.156,1.817-5.365,4.992q-1.722,1.708-3.4,3.464c-8.642,9.135-20.885,24.519-23.16,40.226-3.6,24.723,18.746,30.309,53.861,30.309Z" transform="translate(-0.747 -2.115)" fill="#671200"/>
      <path id="Path_510" data-name="Path 510" d="M173.342,417.91h53.095a5.188,5.188,0,0,0,5.171-5.171V409.5a5.188,5.188,0,0,0-5.171-5.171H173.342a5.188,5.188,0,0,0-5.171,5.171v3.234A5.188,5.188,0,0,0,173.342,417.91Z" transform="translate(-0.865 -2.079)" fill="#671200"/>
      <path id="Path_511" data-name="Path 511" d="M164.892,290.116a10.458,10.458,0,1,1-10.434-9.949A10.209,10.209,0,0,1,164.892,290.116Z" transform="translate(-0.74 -1.44)" stroke="#e5e1e2" stroke-miterlimit="10" stroke-width="5.225"/>
      <path id="Path_512" data-name="Path 512" d="M229.114,228.915C214.02,242.1,188.056,237.1,188.056,237.1s-1.475-26.385,13.631-39.565,41.046-8.2,41.046-8.2S244.208,215.725,229.114,228.915Z" transform="translate(-0.967 -0.969)" fill="#fff"/>
      <circle id="Ellipse_1540" data-name="Ellipse 1540" cx="5.425" cy="5.425" r="5.425" transform="matrix(-0.259, 0.966, -0.966, -0.259, 297.585, 146.069)" fill="#e5e1e2"/>
      <circle id="Ellipse_1541" data-name="Ellipse 1541" cx="5.425" cy="5.425" r="5.425" transform="matrix(-0.259, 0.966, -0.966, -0.259, 317.289, 214.735)" fill="#e5e1e2"/>
      <circle id="Ellipse_1542" data-name="Ellipse 1542" cx="5.425" cy="5.425" r="5.425" transform="matrix(-0.259, 0.966, -0.966, -0.259, 425.133, 163.924)" fill="#e5e1e2"/>
      <circle id="Ellipse_1543" data-name="Ellipse 1543" cx="3.565" cy="3.565" r="3.565" transform="matrix(-0.259, 0.966, -0.966, -0.259, 616.56, 284.286)" fill="#e5e1e2"/>
      <circle id="Ellipse_1544" data-name="Ellipse 1544" cx="5.425" cy="5.425" r="5.425" transform="matrix(-0.259, 0.966, -0.966, -0.259, 622.14, 369.914)" fill="#e5e1e2"/>
      <circle id="Ellipse_1545" data-name="Ellipse 1545" cx="5.425" cy="5.425" r="5.425" transform="matrix(-0.259, 0.966, -0.966, -0.259, 664.919, 338.079)" fill="#e5e1e2"/>
      <path id="Path_513" data-name="Path 513" d="M579.911,226.425v19.339L562.453,266.57h73.332a40.145,40.145,0,1,0,0-80.29H620.056a40.144,40.144,0,0,0-40.146,40.145Z" transform="translate(-2.892 -0.958)" fill="#d8b420"/>
      <path id="Path_514" data-name="Path 514" d="M611.023,226.527a7.137,7.137,0,1,1-7.137-7.137A7.14,7.14,0,0,1,611.023,226.527Zm24.252,0a7.137,7.137,0,1,1-7.136-7.137,7.139,7.139,0,0,1,7.136,7.137Zm24.253,0a7.137,7.137,0,1,1-7.137-7.137,7.14,7.14,0,0,1,7.137,7.137Z" transform="translate(-3.068 -1.128)" fill="#fff"/>
      <path id="Path_515" data-name="Path 515" d="M640.588,440.789l-14,5.473.887-15,13.995-5.469-.883,15Z" transform="translate(-3.221 -2.189)" stroke="#e5e1e2" stroke-linecap="round" stroke-linejoin="round" stroke-width="4.267"/>
      <path id="Path_516" data-name="Path 516" d="M331,166.243v-38.1A7.134,7.134,0,0,1,338.128,121H380.9a7.134,7.134,0,0,1,7.129,7.143v38.1a7.143,7.143,0,0,1-3.668,6.244l-21.385,11.9a7.112,7.112,0,0,1-6.925,0l-21.387-11.9A7.153,7.153,0,0,1,331,166.243Z" transform="translate(-1.702 -0.622)" fill="#f76536" fill-rule="evenodd"/>
      <path id="Path_517" data-name="Path 517" d="M347.747,152.611h23.708M347.747,141.5h23.708M347.747,163.4h23.708" transform="translate(-1.788 -0.727)" stroke="#fff" stroke-linecap="round" stroke-linejoin="round" stroke-width="3.682"/>
      <rect id="Rectangle_1547" data-name="Rectangle 1547" width="28.996" height="3.379" rx="1.689" transform="translate(651.477 297.756) rotate(-45)" fill="#e5e1e2"/>
      <rect id="Rectangle_1548" data-name="Rectangle 1548" width="10.766" height="3.379" rx="1.689" transform="translate(662.595 297.835) rotate(-45)" fill="#e5e1e2"/>
      <path id="Path_518" data-name="Path 518" d="M760.332,225.075s-15.281-4.1-20.549,30.93-5.306,54.218-5.306,54.218-1.934,7.618-7.615,4.95-15.458-12.324-22.089-7.791c-6.873,4.706-6.542,14.016-.94,26s16.908,38.654,17.922,41.079c1,2.367.794,6.429-3.367,5.228s-30.849-16.38-37.288-3.292,14.64,43.893,16.878,47.3,2.048,5.256.582,6.776-9.961-4.43-17.723-8.443-17.476-7.29-20.563.575,3.783,33.961,41.927,67.336l18.686,14.308,21.978-8.707c45.894-21.5,59.73-44.673,58.939-53.083s-11.027-7.952-19.6-6.249-18.385,5.064-19.373,3.2-.67-3.69,2.426-6.347,31.892-26.4,29.32-40.774-32.418-7.171-36.748-7.184-3.388-3.951-1.777-5.952c1.646-2.04,19.913-24.544,28.607-34.506s11.594-18.811,6.292-25.236c-5.1-6.2-17.185.385-23.379,1.375s-5.94-6.877-5.94-6.877,5.293-18.449,9.928-53.568S759.99,225,759.99,225" transform="translate(-3.391 -1.156)" fill="#5f8d70"/>
      <path id="Path_519" data-name="Path 519" d="M720.813,499.486c3.5-25.781,8.633-61.356,14.454-100.632,5.81-39.258,11.03-74.808,14.683-100.571,1.811-12.855,3.27-23.269,4.287-30.5.5-3.578.9-6.364,1.174-8.3.134-.92.248-1.636.32-2.158.086-.48.138-.737.138-.737s-.011.246-.059.746q-.09.779-.243,2.168c-.242,1.938-.591,4.728-1.031,8.319-.9,7.218-2.276,17.655-4.033,30.541-3.5,25.781-8.636,61.341-14.443,100.613s-11.04,74.827-14.679,100.586" transform="translate(-3.706 -1.319)" fill="#fff"/>
      <path id="Path_520" data-name="Path 520" d="M718.042,321.955a6.975,6.975,0,0,1,1.085,1.324c.662.873,1.572,2.169,2.673,3.777,2.207,3.232,5.141,7.762,8.285,12.845,3.061,5,5.843,9.525,7.983,13.019.961,1.54,1.768,2.846,2.439,3.931a6.157,6.157,0,0,1,.825,1.485,6.473,6.473,0,0,1-1.1-1.305c-.647-.878-1.557-2.173-2.648-3.8-2.182-3.254-5.054-7.832-8.18-12.9l-8.07-12.949c-.961-1.539-1.782-2.842-2.453-3.927a7.836,7.836,0,0,1-.843-1.5Zm25.465,36.087c-.124-.18,8.958-6.651,20.294-14.425s20.634-13.953,20.759-13.773-8.962,6.636-20.294,14.425S743.631,358.223,743.507,358.042Zm-11.64,59.907a7.626,7.626,0,0,1,1.61-.645c1.217-.4,2.715-.9,4.475-1.488,3.776-1.256,9-3.021,14.686-5.169s10.775-4.243,14.457-5.793c1.712-.717,3.162-1.334,4.352-1.837a7.964,7.964,0,0,1,1.64-.591,7.411,7.411,0,0,1-1.5.874q-2.107,1.08-4.259,2.07-7.082,3.28-14.4,6.021t-14.8,4.956c-1.921.56-3.484.979-4.554,1.251a7.061,7.061,0,0,1-1.7.35Zm-30.21-27.581a6.593,6.593,0,0,1,1.3.945c.8.655,1.94,1.613,3.342,2.807q5.464,4.69,10.842,9.479t10.692,9.657q1.612,1.478,3.181,3a6.024,6.024,0,0,1,1.093,1.184,6.569,6.569,0,0,1-1.3-.945c-.8-.654-1.94-1.613-3.341-2.807Q722,409,716.624,404.211c-4.2-3.734-7.98-7.154-10.678-9.66q-1.611-1.478-3.181-3c-.754-.712-1.157-1.137-1.108-1.181Zm-17,51.577a10.147,10.147,0,0,1,1.655,1.233c1.137.944,2.585,2.141,4.3,3.586,3.606,3.054,8.554,7.3,13.984,12.049s10.321,9.071,13.833,12.228c1.652,1.506,3.044,2.779,4.136,3.781a10.531,10.531,0,0,1,1.445,1.471,10.2,10.2,0,0,1-1.655-1.233c-1.137-.944-2.585-2.141-4.3-3.585q-7.036-5.973-13.984-12.05T690.242,447.2c-1.653-1.506-3.044-2.779-4.136-3.782a9.309,9.309,0,0,1-1.446-1.471Zm38.632,33.26a11.486,11.486,0,0,1,2.024-.862c1.468-.546,3.352-1.249,5.611-2.082,4.736-1.772,11.283-4.227,18.422-7.145q9.153-3.733,18.179-7.765,2.74-1.2,5.473-2.426a11.681,11.681,0,0,1,2.053-.809,11.179,11.179,0,0,1-1.916,1.091c-1.257.657-3.1,1.577-5.38,2.661q-8.933,4.259-18.1,7.989t-18.539,6.932q-2.838.968-5.7,1.848A13.982,13.982,0,0,1,723.293,475.206Z" transform="translate(-3.52 -1.655)" fill="#fff"/>
      <path id="Path_521" data-name="Path 521" d="M713.887,256h.13c.77,10.463,8.89,10.624,8.89,10.624s-8.954.168-8.954,12.258c0-12.09-8.954-12.258-8.954-12.258s8.116-.161,8.887-10.624Z" transform="translate(-3.624 -1.316)" fill="#e5e1e2"/>
      <path id="Path_522" data-name="Path 522" d="M458.427,255.443l-15.049,55.014,5.369-6.179a27.364,27.364,0,0,1-6.838,2.443,49.4,49.4,0,0,1-8.223,1.058c-2.9.152-5.921.129-9.022,0s-6.25-.364-9.457-.635H415.2a8.6,8.6,0,0,0-2.09,17.058c3.313.528,6.673,1.022,10.126,1.422s6.99.692,10.655.775a68.689,68.689,0,0,0,11.384-.623,47.009,47.009,0,0,0,11.947-3.3,9.356,9.356,0,0,0,5.168-5.615l.188-.576,18.056-54.109a11.609,11.609,0,0,0-22.026-7.342c-.059.2-.129.423-.176.611Z" transform="translate(-2.087 -1.269)" fill="#fc85ae"/>
      <path id="Path_523" data-name="Path 523" d="M536.765,322.747s.581,8.148-5.254,10.3L470.8,335.386s-4.079-3.959-3.276-13.449C467.527,321.915,493.326,295.595,536.765,322.747Z" transform="translate(-2.403 -1.596)" fill="#fb558e"/>
      <path id="Path_524" data-name="Path 524" d="M492.317,331.435c.2,1.55.881,2.737,1.527,2.642s1-1.41.8-2.948-.881-2.738-1.527-2.643-1,1.41-.8,2.949Z" transform="translate(-2.531 -1.689)" fill="#9e579d"/>
      <path id="Path_525" data-name="Path 525" d="M466.331,311.62v.083c.024.227.036.466.048.716.06.955.107,2.1.143,3.4.036,1.051.048,2.2.06,3.426,0,.919.012,1.874.012,2.865,17.263-7.461,52.563-2.161,66.774.43-.142-.716-.274-1.421-.4-2.113-.1-.513-.179-1.015-.275-1.516a111.868,111.868,0,0,1-1.609-14.743l-.036-1.17a159.855,159.855,0,0,1,1.991-25.284c.1-.657.2-1.313.3-1.958l.215-1.289q.779-4.746,1.825-9.442c.238-1.051.441-2.113.608-3.164.19-1.17.333-2.34.441-3.5a36.9,36.9,0,0,0-.143-8.464c-.68-4.74-2.527-8.821-5.948-11.448a15.27,15.27,0,0,0-7.4-2.913c-.99-.131-1.967-.263-2.909-.37-2.969-.358-5.7-.609-7.916-.788-.727-.06-1.407-.107-2.015-.155-1.55-.107-2.7-.179-3.255-.2q-.2-.009-.4-.024l-26.5,7.342-2.527.692c-1.073.334-2.086.657-3.028.967-2.337.776-4.328,1.516-6.045,2.243a28.931,28.931,0,0,0-5.149,2.722c-5.842,4.047-5.008,8.715-4.984,17.907v.633q0,1.039-.035,2.076c-.024.871-.072,1.731-.143,2.591-.119,1.731.908,3.42.693,5.116a202.363,202.363,0,0,1,4.469,23.371c.862,6.467.691,10.145,2.5,11.482.406.31.656.478.656.478Z" transform="translate(-2.355 -1.203)" fill="#fff"/>
      <path id="Path_526" data-name="Path 526" d="M505.965,235.209s-2.338,8.845-11.171,11.3c-11.231,3.113-12.923-.658-12.923-.658a22.184,22.184,0,0,0,.305-4.852q-.042-.971-.152-1.938a51.635,51.635,0,0,0-1.1-6.039c-.117-.528-.259-1.08-.4-1.645l-.012-.071c7.682-2.889,13.709-7.225,17.4-13.639l1.092-.858.74-.587.211.446.036,1.492c.152,7.013,1.339,11.16,5.979,17.046Z" transform="translate(-2.47 -1.112)" fill="#fc85ae"/>
      <path id="Path_527" data-name="Path 527" d="M452.867,455.812a1.9,1.9,0,0,0,.67-.117l78.827-28.417a1.993,1.993,0,0,0-1.351-3.748l-78.827,28.417a1.992,1.992,0,0,0,.681,3.865Z" transform="translate(-2.318 -2.177)" fill="#fb558e"/>
      <path id="Path_528" data-name="Path 528" d="M534.971,455.81a1.992,1.992,0,0,0,.671-3.865l-79.766-28.888a1.995,1.995,0,0,0-1.363,3.748l79.766,28.887A2.137,2.137,0,0,0,534.971,455.81Z" transform="translate(-2.33 -2.174)" fill="#fb558e"/>
      <path id="Path_529" data-name="Path 529" d="M445.81,506.426a3.412,3.412,0,0,0,3.372-2.949l14.237-106.3h59.572l14.015,106.3a3.4,3.4,0,1,0,6.743-.892l-14.4-109.263a3.405,3.405,0,0,0-3.372-2.961H460.436a3.4,3.4,0,0,0-3.372,2.949L442.427,502.573a3.412,3.412,0,0,0,2.925,3.83,3.078,3.078,0,0,0,.459.023Z" transform="translate(-2.274 -2.007)" fill="#fb558e"/>
      <path id="Path_530" data-name="Path 530" d="M479.611,393.179h42.561c13.486,0,27.925-7.377,29.992-20.711a252.3,252.3,0,0,0,2.678-50.914,61.944,61.944,0,0,0-23.507-45.674s-8.505,37.052,2.185,88.2c-4.064,19.443-53.909,29.1-53.909,29.1Z" transform="translate(-2.466 -1.418)" fill="#d8b420"/>
      <path id="Path_531" data-name="Path 531" d="M380.613,460.6H399.62s4.406-21.1,5.875-32.94,2.243-39.883,2.243-39.883,15.155,4.923,46.873,3.066c70.274-4.1,43.631-55.73,43.631-55.73-2.374,3.277-16.917,1.01-26.855,2.573-30.508,2.925-56.976,14.908-72.847,21.757a78.3,78.3,0,0,0-10.2,5.227c-3.83,2.362-6.227,9.516-7.671,18.937-4.347,28.3-.059,76.993-.059,76.993Z" transform="translate(-1.947 -1.723)" fill="#2c447c"/>
      <path id="Path_532" data-name="Path 532" d="M381.154,485.6H394.57l2.585-15.742,1.41-8.612h-16.67l-.259,8.612-.482,15.742Z" transform="translate(-1.96 -2.371)" fill="#fc85ae"/>
      <path id="Path_533" data-name="Path 533" d="M381.154,485.643H394.57l1.927-11.723.658-4.018H381.635l-.129,4.17Z" transform="translate(-1.96 -2.416)" fill="#fff"/>
      <path id="Path_534" data-name="Path 534" d="M347.864,506.9h50.761a7.038,7.038,0,0,0,.67-2.819c.317-4.3-1.046-11.148-1.727-15.472-.082-.505-.152-.975-.211-1.4a14.935,14.935,0,0,1-.153-1.762c0-3.525-3.125-2.926-3.125-2.926-5.133,5.04-10.948-2.514-14.343-.035,0,0-.141.105-.447.34-.283.224-.717.576-1.316,1.081-.87.728-2.079,1.774-3.724,3.254-4.029,3.629-10.878,6.015-16.717,8.458-.74.305-1.434.622-2.079.927q-.722.354-1.375.705c-4.769,2.573-6.285,5.04-6.626,6.826a3.9,3.9,0,0,0,.412,2.819Z" transform="translate(-1.786 -2.478)" fill="#2c447c"/>
      <path id="Path_535" data-name="Path 535" d="M347.864,507.012h50.761a7.038,7.038,0,0,0,.67-2.819H347.453A3.9,3.9,0,0,0,347.864,507.012Z" transform="translate(-1.786 -2.592)" fill="#2c447c"/>
      <path id="Path_536" data-name="Path 536" d="M508.94,249.324l-16.874,62.218,6.016-6.988a30.65,30.65,0,0,1-7.66,2.763,54.431,54.431,0,0,1-9.213,1.186c-3.253.173-6.645.138-10.115,0s-7.011-.4-10.607-.713h-.022a9.726,9.726,0,0,0-2.341,19.292c3.711.6,7.489,1.163,11.359,1.612s7.843.795,11.954.886a75.764,75.764,0,0,0,12.764-.713,52.786,52.786,0,0,0,13.4-3.73,10.571,10.571,0,0,0,5.8-6.343l.217-.645,20.23-61.2a13.155,13.155,0,0,0-8.231-16.611,13,13,0,0,0-16.474,8.3c-.069.219-.149.483-.206.691Z" transform="translate(-2.313 -1.232)" fill="#f76536"/>
      <path id="Path_537" data-name="Path 537" d="M413.888,460.657H432.9s4.405-21.1,5.874-32.941,2.244-39.883,2.244-39.883,15.154,4.923,46.872,3.066c70.274-4.1,43.631-55.73,43.631-55.73-2.373,3.277-20.182,7.8-30.12,9.363-30.508,2.925-53.709,8.106-69.58,14.967a78.313,78.313,0,0,0-10.2,5.227c-3.829,2.362-6.226,9.516-7.671,18.937-4.358,28.3-.059,76.994-.059,76.994Z" transform="translate(-2.118 -1.723)" fill="#2c447c"/>
      <path id="Path_538" data-name="Path 538" d="M414.418,485.668h13.428l2.585-15.742,1.41-8.622H415.17l-.271,8.622-.482,15.742Z" transform="translate(-2.131 -2.372)" fill="#fc85ae"/>
      <path id="Path_539" data-name="Path 539" d="M414.418,485.714h13.428l1.914-11.724.671-4.017H414.9l-.129,4.17-.352,11.571Z" transform="translate(-2.131 -2.416)" fill="#fff"/>
      <path id="Path_540" data-name="Path 540" d="M381.128,506.967h50.761a7.055,7.055,0,0,0,.67-2.819c.317-4.3-1.046-11.148-1.727-15.471-.082-.505-.152-.975-.211-1.4a14.949,14.949,0,0,1-.153-1.763c0-3.524-3.125-2.925-3.125-2.925-5.133,5.04-10.948-2.514-14.344-.035,0,0-.14.105-.446.34-.283.224-.717.576-1.316,1.081-.87.728-2.079,1.774-3.724,3.253-4.029,3.63-10.879,6.015-16.717,8.458-.74.305-1.434.623-2.079.928q-.722.352-1.375.705c-4.769,2.573-6.284,5.039-6.626,6.825a3.99,3.99,0,0,0,.412,2.819Z" transform="translate(-1.957 -2.478)" fill="#2c447c"/>
      <path id="Path_541" data-name="Path 541" d="M381.127,507.081h50.762a7.055,7.055,0,0,0,.67-2.819H380.717a3.993,3.993,0,0,0,.411,2.819Z" transform="translate(-1.957 -2.592)" fill="#2c447c"/>
      <path id="Path_542" data-name="Path 542" d="M309.472,334.472v5.272c0,3.039,1.865,5.492,4.183,5.492H604.394c2.307,0,4.184-2.452,4.184-5.492v-5.272c0-3.025-1.865-5.493-4.184-5.493H313.655c-2.306.015-4.183,2.467-4.183,5.493Z" transform="translate(-1.591 -1.691)" fill="#e5e1e2"/>
      <path id="Path_543" data-name="Path 543" d="M324.4,352.8H586.1a1.96,1.96,0,0,0,2.126-1.738v-9.152H322.29v9.152A1.955,1.955,0,0,0,324.4,352.8ZM600.249,507.575,563.173,353.882H576.2l37.063,153.693H600.249Zm-253.959,0,37.075-153.693H370.349L333.274,507.575Z" transform="translate(-1.657 -1.758)" fill="#e5e1e2"/>
      <path id="Path_544" data-name="Path 544" d="M344.831,248.036l13.628,57.633.364,1.515.916,3.877a3.718,3.718,0,0,0,3.618,2.866h91.807a3.732,3.732,0,0,0,3.63-4.581l-14.908-63.025a3.718,3.718,0,0,0-3.618-2.866H348.462a3.735,3.735,0,0,0-3.63,4.581Z" transform="translate(-1.772 -1.252)" fill="#7d7d7d"/>
      <path id="Path_545" data-name="Path 545" d="M389.668,281.322a8.215,8.215,0,0,0,7.977,7.178,6.308,6.308,0,0,0,6.39-7.178,8.215,8.215,0,0,0-7.976-7.177A6.3,6.3,0,0,0,389.668,281.322Z" transform="translate(-2.003 -1.409)" fill="#fff"/>
      <path id="Path_546" data-name="Path 546" d="M436.911,243.466l15.871,70.473h2.678a3.724,3.724,0,0,0,3.618-4.581L444.17,246.332a3.718,3.718,0,0,0-3.618-2.866Zm-26.528,69.9,2.518,14.088h-8.319l-2.518-14.088Z" transform="translate(-2.067 -1.252)" fill="#2c447c"/>
      <path id="Path_547" data-name="Path 547" d="M424.4,326.591l-1.88-2.643a3.6,3.6,0,0,0-2.925-1.5H394.376a3.558,3.558,0,0,0-3.172,1.926l-1.269,2.432a1.7,1.7,0,0,0,1.516,2.49h31.554A1.716,1.716,0,0,0,424.4,326.591Z" transform="translate(-2.004 -1.658)" fill="#2c447c"/>
      <path id="Path_548" data-name="Path 548" d="M476.444,233.279s25.423-2.476,23.636-18.286.289-26.777-16.016-25.862-18.778,7.3-19.462,12.721S469.787,233.514,476.444,233.279Z" transform="translate(-2.388 -0.972)" fill="#f76536"/>
      <path id="Path_549" data-name="Path 549" d="M455,187.945s2.621,14.672,7.617,15.207,3.2-5.635,3.2-5.635l-1.347-6.959Z" transform="translate(-2.339 -0.966)" fill="#303a52"/>
      <path id="Path_550" data-name="Path 550" d="M498.2,183.172c-.669-5.557-6.508-7.119-6.508-7.119-5.86-2.091-17.421.15-29.206,3.965-2.776.894-6.472-.5-8.309,1.058-2.223,1.877.855,9.2.855,9.2,5.972,13.624,22.622,7.438,27.6,5.214,1.567,3.5,1.884,8.547,5.165,10.868,1.878,1.317,4.888,1.076,7.917.273.438.678,1.922,1.184,2.3,2.14,1.279,3.2,1.623,8.356,1.968,12.319l1.386-.85c.084-1.1,11.72-38-3.169-37.071Z" transform="translate(-2.331 -0.901)" fill="#303a52"/>
      <rect id="Rectangle_1549" data-name="Rectangle 1549" width="70.668" height="53.432" rx="20" transform="translate(213.895 185.044)" fill="#fb558e"/>
      <rect id="Rectangle_1550" data-name="Rectangle 1550" width="14.938" height="14.938" rx="7" transform="translate(248.942 225.262) rotate(45)" fill="#fb558e"/>
      <path id="Path_551" data-name="Path 551" d="M257.622,197.55c6.182,0,10.327,5.778,10.327,11.159,0,10.923-17.209,19.865-17.523,19.865S232.9,219.632,232.9,208.709c0-5.381,4.145-11.159,10.327-11.159a9.263,9.263,0,0,1,7.2,3.318A9.266,9.266,0,0,1,257.622,197.55Z" transform="translate(-1.197 -1.016)" fill="#fff" fill-rule="evenodd"/>
    </g>
  </g>
</svg>
