<svg xmlns="http://www.w3.org/2000/svg" width="232.41" height="70.733" viewBox="0 0 232.41 70.733">
  <g id="Group_135" data-name="Group 135" transform="translate(-383.44 14.32)">
    <g id="Group_113" data-name="Group 113" transform="translate(383.44 -14.32)">
      <path id="Path_298" data-name="Path 298" d="M361.427,41.218l-16.5-9.538L328.44,41.218V60.273l16.483,9.517,16.5-9.517Z" transform="translate(-328.44 -31.68)" fill="#c9cfd1"/>
      <path id="Path_299" data-name="Path 299" d="M380.049,41.218l-16.5-9.538-16.5,9.538V60.273l16.5,9.517,16.5-9.517Z" transform="translate(-307.173 -31.68)" fill="#c9cfd1"/>
      <path id="Path_300" data-name="Path 300" d="M398.659,41.218l-16.5-9.538-16.5,9.538V60.273l16.5,9.517,16.5-9.517Z" transform="translate(-285.894 -31.68)" fill="#c9cfd1"/>
      <path id="Path_301" data-name="Path 301" d="M417.247,41.218l-16.5-9.538L384.26,41.218V60.273l16.483,9.517,16.5-9.517Z" transform="translate(-264.615 -31.68)" fill="#c9cfd1"/>
      <path id="Path_302" data-name="Path 302" d="M435.869,41.218l-16.5-9.538-16.5,9.538V60.273l16.5,9.517,16.5-9.517Z" transform="translate(-243.347 -31.68)" fill="#c9cfd1"/>
      <path id="Path_303" data-name="Path 303" d="M437.974,31.68l-16.5,9.538V60.273l16.5,9.517,16.5-9.517V41.218Z" transform="translate(-222.069 -31.68)" fill="#c9cfd1"/>
      <path id="Path_304" data-name="Path 304" d="M337.74,56.438V75.493l16.5,9.517,16.5-9.517V56.438l-16.5-9.538Z" transform="translate(-317.806 -14.277)" fill="#c9cfd1"/>
      <path id="Path_305" data-name="Path 305" d="M356.35,56.438V75.493l16.483,9.517,16.5-9.517V56.438l-16.5-9.538Z" transform="translate(-296.527 -14.277)" fill="#c9cfd1"/>
      <path id="Path_306" data-name="Path 306" d="M374.95,56.438V75.493l16.5,9.517,16.5-9.517V56.438l-16.5-9.538Z" transform="translate(-275.26 -14.277)" fill="#c9cfd1"/>
      <path id="Path_307" data-name="Path 307" d="M393.56,56.438V75.493l16.5,9.517,16.5-9.517V56.438l-16.5-9.538Z" transform="translate(-253.981 -14.277)" fill="#c9cfd1"/>
      <path id="Path_308" data-name="Path 308" d="M412.17,56.438V75.493l16.483,9.517,16.5-9.517V56.438l-16.5-9.538Z" transform="translate(-232.702 -14.277)" fill="#c9cfd1"/>
    </g>
  </g>
</svg>
