<svg id="Layer_1" data-name="Layer 1" xmlns="http://www.w3.org/2000/svg" viewBox="0 0 1440 1440"><defs><style>.cls-1{fill:#e6913c;}.cls-2{fill:#578e5b;}.cls-3{fill:#fff;}.cls-4{fill:#5b775d;}.cls-5{fill:#5c7bbd;}.cls-6{fill:#dc8938;}.cls-7{fill:#69696a;}</style></defs><title>360 immerse  logo</title><path class="cls-1" d="M919.31,324.71l-34.76.6-13.81.24a17.84,17.84,0,0,1-4-.38,6.49,6.49,0,0,1-4-9.87,16,16,0,0,1,1.93-2.43q12.84-14.24,25.7-28.44l38.25-42.32a30,30,0,0,1,2.46-2.58,6.81,6.81,0,0,1,10.69,1.62c.54.88.94,1.86,1.4,2.79,2.88,5.87,5.74,11.74,8.65,17.6,1.26,2.55,1.47,2.61,4.1,1.71,7.3-2.51,14.56-5.17,21.9-7.54a302.37,302.37,0,0,1,56.94-12.46c20.81-2.49,41.51-1.82,62,3.16a116.65,116.65,0,0,1,75.39,56.8c9.29,16.31,15,33.86,18.58,52.21,4.16,21.42,5,43,3.8,64.77-.72,13.07-2.08,26.06-4,39q-3.1,20.94-8,41.54c-5.83,24.59-13,48.79-21.23,72.67-7.6,22.06-16.22,43.71-25.56,65.08-10.41,23.83-21.77,47.19-33.86,70.2-7.88,15-16.22,29.72-24.76,44.33-10,17.18-20.7,34-31.69,50.58-10.41,15.73-21.14,31.25-32.53,46.3-6.09,8-12.1,16.17-18.27,24.16-6.63,8.59-13.36,17.09-20.46,25.29-7.68,8.87-15.07,18-22.86,26.76-8.67,9.77-17.55,19.37-26.53,28.87-7.85,8.31-15.91,16.44-24,24.53-10.28,10.31-20.88,20.28-31.6,30.13-12.91,11.86-26.32,23.14-39.66,34.5q-15.45,13.14-31.45,25.6c-7.85,6.11-15.88,12-23.86,17.94-5.83,4.35-11.64,8.74-17.58,12.94q-11.64,8.24-23.47,16.18c-9.61,6.47-19.23,12.93-29,19.19-13.49,8.66-27.14,17.08-41.17,24.87-6.36,3.54-12.63,7.22-18.9,10.93-8.56,5.07-17.4,9.64-26.21,14.25-14.74,7.72-29.77,14.86-44.9,21.75q-23.71,10.82-48.26,19.64c-12.44,4.49-25,8.67-37.76,12-18.12,4.72-36.31,9-55,10.78-15.29,1.43-30.57,1.81-45.83.09-22.38-2.52-43.66-8.74-63.13-20.32a147,147,0,0,1-40.33-35.35c-17.43-21.94-28.28-46.91-34.43-74.11a245.21,245.21,0,0,1-5.69-59.28,292.87,292.87,0,0,1,5.08-48.24,421.33,421.33,0,0,1,15-56.79A449.94,449.94,0,0,1,281.36,910a660.8,660.8,0,0,1,44.1-79.36c4.67-7.24,9.43-14.41,14.18-21.6a36.85,36.85,0,0,1,2.62-3.61,6.78,6.78,0,0,1,9.19-1.42,17.5,17.5,0,0,1,2.13,1.61q11.12,9.28,22.22,18.57a11.57,11.57,0,0,1,4.14,6.66,30.09,30.09,0,0,0,1.16,4.31c1.33,3.57.37,6.66-1.67,9.65-1.84,2.7-3.58,5.47-5.33,8.22-10.7,16.79-20.77,33.94-30,51.57q-7.37,14-13.93,28.38c-5.39,11.74-10.23,23.71-14.63,35.87a378.84,378.84,0,0,0-13.1,43.94,293,293,0,0,0-6.45,41.34,238.68,238.68,0,0,0-.57,30.72c.83,18.21,3.87,36,10.89,53a104.55,104.55,0,0,0,16.6,27.82,81.38,81.38,0,0,0,22.95,18.83,108.32,108.32,0,0,0,41,12.69,199.35,199.35,0,0,0,35.15.34c18.62-1.21,36.72-5.19,54.69-9.93a400.41,400.41,0,0,0,43.6-14.2c13.83-5.4,27.6-10.94,41.12-17.11,16.61-7.6,32.86-15.93,49.06-24.37,14.88-7.77,29.41-16.15,43.73-24.89,9.51-5.79,19.17-11.36,28.48-17.46,18.51-12.13,36.91-24.41,54.81-37.44,13.1-9.54,25.87-19.47,38.55-29.55,7.79-6.18,15.63-12.3,23.33-18.61,5.39-4.42,10.62-9.06,15.84-13.69q10.35-9.15,20.56-18.44c6.69-6.12,13.34-12.26,19.88-18.54q17-16.37,33.32-33.49c12.56-13.27,25.07-26.59,36.92-40.49q19.67-23.06,38.21-47C981,810.31,996.86,787.71,1012,764.6c9.93-15.15,19.33-30.64,28.47-46.29q20.46-35,38.09-71.54a863.74,863.74,0,0,0,34.92-82.39c7.56-20.81,14.42-41.85,19.94-63.3a457.28,457.28,0,0,0,12.64-68.74c1.71-17.31,2.32-34.68.77-52.06a153.34,153.34,0,0,0-6-32.35,94.55,94.55,0,0,0-12.65-26.41c-8.14-11.55-19-19.36-32.24-24.27-9.75-3.63-19.86-5-30.14-5.37-15.53-.61-30.85,1.32-46,4.58a291,291,0,0,0-41,12.09,23.08,23.08,0,0,0-2.45,1,.92.92,0,0,0-.46,1.13c.38,1,.83,1.9,1.21,2.87a8.24,8.24,0,0,1,.69,4.33,6,6,0,0,1-4.24,5.22,15.37,15.37,0,0,1-4.81.77q-16,.22-32.09.51c-5.8.09-11.59.22-17.38.34ZM824.44,991.78c-1.78.22-2.79,1.63-4,2.69-9.64,8.62-19.56,16.9-29.68,24.95-20,15.91-40,31.82-61,46.37-21.62,15-43.36,29.75-66,43.24-13.78,8.22-27.46,16.61-41.61,24.18-26.72,14.3-53.73,28-81.9,39.32-13.24,5.31-26.5,10.53-40,15-11.15,3.66-22.48,6.68-33.89,9.43a252.14,252.14,0,0,1-28.83,5.61c-6.35.77-12.7,1.32-19.07,1.8-18.08,1.35-35.92.17-53.41-4.83-16.9-4.83-31.83-13-44-25.91-9.22-9.74-15.91-21.07-21-33.41-7.41-18.09-10.54-37.08-11.46-56.48a239.8,239.8,0,0,1,1.37-36.92,316.09,316.09,0,0,1,7.9-43.34c8.12-32.27,20.51-62.94,35.38-92.63a671.14,671.14,0,0,1,34.47-60.34c2.07-3.26,4.19-6.49,6.3-9.73.48-.75,1.16-1.51,1-2.42-.81-3.56-1.08-7.26-4.37-9.87-5.7-4.53-11.18-9.33-16.76-14q-2-1.73-4.12-3.42c-2-1.6-2.18-1.56-3.78.63-.43.6-.83,1.23-1.25,1.84-3.13,4.7-6.3,9.37-9.38,14.1-20.16,30.91-38.31,62.92-53.05,96.8a445.33,445.33,0,0,0-21.09,59.1,332.84,332.84,0,0,0-11.85,72.83,244,244,0,0,0,.91,34.73,214.46,214.46,0,0,0,7.1,38.5c5.8,20.48,14.57,39.55,27.34,56.66,15.54,20.81,35,36.66,59.11,46.6a154.84,154.84,0,0,0,47.92,11.3,224.81,224.81,0,0,0,39.17-.58,262.11,262.11,0,0,0,33-5.24A461.67,461.67,0,0,0,520.27,1222c19.65-7.25,39.05-15.08,58-24,15.47-7.26,30.9-14.6,45.88-22.81,23.7-13,47.23-26.32,70.06-40.82,24-15.22,47.54-31,70.41-47.81,15.32-11.27,30.55-22.67,45.24-34.75,10.9-9,21.63-18.15,32.38-27.3,2.13-1.81,4.53-3.37,6.19-5.72a34.11,34.11,0,0,0,3.26-2.3c5.77-5.13,11.58-10.22,17.23-15.48q10.11-9.4,20-19.07c12-11.73,23.85-23.64,35.29-35.93q7-7.5,13.92-15c2.81-3.06,5.61-6.14,8.32-9.29,6.5-7.53,13-15.07,19.39-22.68,6.2-7.39,12.47-14.73,18.39-22.34,8.93-11.49,17.85-23,26.4-34.76C1022.86,825,1034.75,808,1046,790.52c11-17.11,21.7-34.41,31.8-52.08,7.88-13.8,15.57-27.7,22.88-41.81q17.83-34.43,33-70.12c6.58-15.43,12.68-31,18.41-46.82,4.05-11.16,7.86-22.41,11.2-33.8q4.5-15.37,8.85-30.79c3.5-12.43,6.2-25,8.63-37.71,1.42-7.42,2.62-14.89,3.7-22.37.86-6,1.46-12.06,2.14-18.1.56-5,.35-10.09,1.38-15.05,0-14.1.68-28.19-.56-42.3a227.61,227.61,0,0,0-3.15-23.34,162.59,162.59,0,0,0-15.52-45.32,116.19,116.19,0,0,0-30.15-37,105.87,105.87,0,0,0-31.8-17.59,126.84,126.84,0,0,0-28.56-6.52c-7.67-.81-15.37-1.91-23.06-1.33-6.35.48-12.72.55-19.08,1.3a261.61,261.61,0,0,0-25.88,4.17,349.77,349.77,0,0,0-53.61,16.27c-1.66.65-3.31,1.32-5,1.9a1.81,1.81,0,0,1-2.55-1.08c-1.22-2.38-2.34-4.81-3.51-7.21q-4.41-9-8.83-18c-.55-1.12-1.26-1.24-2.08-.44q-1.75,1.71-3.4,3.53c-6.84,7.62-13.65,15.28-20.51,22.88-4.28,4.74-8.65,9.39-13,14.12Q885.54,299.39,873.33,313c-1.29,1.43-2.49,3-3.7,4.46-.14.18-.09.53-.17,1a5.34,5.34,0,0,0,2.46.29c7,0,14-.05,21-.14,10.23-.13,20.47-.26,30.71-.64,14.25-.52,28.53-.29,42.79-.39a19,19,0,0,0,3.11-.16,1.28,1.28,0,0,0,1.12-1.62,23.79,23.79,0,0,0-1.3-3.3c-.72-1.63-1.55-3.21-2.24-4.85a1.58,1.58,0,0,1,.91-2.19c.4-.19.83-.31,1.25-.47a349.22,349.22,0,0,1,50.67-15.24,223.8,223.8,0,0,1,39.69-4.63c6,.82,12.13.35,18.2,1.19,11.75,1.62,22.88,4.79,33.25,10.65a69.07,69.07,0,0,1,20.06,17.4c8.19,10.26,13.37,22,16.86,34.6a146.3,146.3,0,0,1,4.71,24.42c.59,5.9,1.39,11.78,1.5,17.71a290.49,290.49,0,0,1-.81,33.38c-.43,4.43-.58,8.89-1.16,13.3-1,7.19-2.12,14.36-3.24,21.53-1.8,11.58-4.26,23-7,34.42-2.63,11.12-5.75,22.11-9.06,33q-6.08,20-13.18,39.72c-5,13.83-10.45,27.46-16.17,41-5.08,12-10.32,24-16,35.79-12.65,26.39-26.11,52.36-40.91,77.64-9.15,15.63-18.57,31.1-28.49,46.26q-8.9,13.61-18.17,27c-5.83,8.42-11.72,16.81-17.84,25q-11.44,15.35-23.31,30.38-9.49,12.08-19.41,23.82c-6.7,7.94-13.38,15.9-20.47,23.51-8,8.59-15.61,17.52-23.74,26-16.89,17.56-34.1,34.82-52.09,51.28-4.27,3.9-8.7,7.64-13,11.55C828.18,987.57,825.81,989.21,824.44,991.78Z"/><path class="cls-2" d="M824.44,991.78c1.37-2.57,3.74-4.21,5.8-6.11,4.26-3.91,8.69-7.65,13-11.55,18-16.46,35.2-33.72,52.09-51.28,8.13-8.45,15.76-17.38,23.74-26,7.09-7.61,13.77-15.57,20.47-23.51s13.08-15.77,19.41-23.82q11.83-15,23.31-30.38c6.12-8.21,12-16.6,17.84-25q9.26-13.36,18.17-27c9.92-15.16,19.34-30.63,28.49-46.26,14.8-25.28,28.26-51.25,40.91-77.64,5.65-11.78,10.89-23.75,16-35.79,5.72-13.54,11.21-27.17,16.17-41q7.07-19.69,13.18-39.72c3.31-10.93,6.43-21.92,9.06-33,2.69-11.39,5.15-22.84,7-34.42,1.12-7.17,2.29-14.34,3.24-21.53.58-4.41.73-8.87,1.16-13.3a290.49,290.49,0,0,0,.81-33.38c-.11-5.93-.91-11.81-1.5-17.71A146.3,146.3,0,0,0,1148,349c-3.49-12.56-8.67-24.34-16.86-34.6A69.07,69.07,0,0,0,1111,297c-10.37-5.86-21.5-9-33.25-10.65-6.07-.84-12.16-.37-18.2-1.19a223.8,223.8,0,0,0-39.69,4.63A349.22,349.22,0,0,0,969.23,305c-.42.16-.85.28-1.25.47a1.58,1.58,0,0,0-.91,2.19c.69,1.64,1.52,3.22,2.24,4.85a23.79,23.79,0,0,1,1.3,3.3,1.28,1.28,0,0,1-1.12,1.62,19,19,0,0,1-3.11.16c-14.26.1-28.54-.13-42.79.39-10.24.38-20.48.51-30.71.64-7,.09-14,.1-21,.14a5.34,5.34,0,0,1-2.46-.29c.08-.51,0-.86.17-1,1.21-1.51,2.41-3,3.7-4.46q12.21-13.57,24.48-27.09c4.3-4.73,8.67-9.38,13-14.12,6.86-7.6,13.67-15.26,20.51-22.88q1.65-1.81,3.4-3.53c.82-.8,1.53-.68,2.08.44q4.44,9,8.83,18c1.17,2.4,2.29,4.83,3.51,7.21a1.81,1.81,0,0,0,2.55,1.08c1.68-.58,3.33-1.25,5-1.9a349.77,349.77,0,0,1,53.61-16.27,261.61,261.61,0,0,1,25.88-4.17c6.36-.75,12.73-.82,19.08-1.3,7.69-.58,15.39.52,23.06,1.33a126.84,126.84,0,0,1,28.56,6.52,105.87,105.87,0,0,1,31.8,17.59,116.19,116.19,0,0,1,30.15,37,162.59,162.59,0,0,1,15.52,45.32,227.61,227.61,0,0,1,3.15,23.34c1.24,14.11.61,28.2.56,42.3-1,5-.82,10-1.38,15.05-.68,6-1.28,12.09-2.14,18.1-1.08,7.48-2.28,15-3.7,22.37-2.43,12.67-5.13,25.28-8.63,37.71q-4.35,15.4-8.85,30.79c-3.34,11.39-7.15,22.64-11.2,33.8-5.73,15.77-11.83,31.39-18.41,46.82q-15.21,35.67-33,70.12c-7.31,14.11-15,28-22.88,41.81-10.1,17.67-20.79,35-31.8,52.08-11.25,17.49-23.14,34.52-35.36,51.34-8.55,11.78-17.47,23.27-26.4,34.76-5.92,7.61-12.19,15-18.39,22.34-6.4,7.61-12.89,15.15-19.39,22.68-2.71,3.15-5.51,6.23-8.32,9.29q-6.93,7.55-13.92,15c-11.44,12.29-23.28,24.2-35.29,35.93q-9.88,9.65-20,19.07c-5.65,5.26-11.46,10.35-17.23,15.48a34.11,34.11,0,0,1-3.26,2.3Z"/><path class="cls-3" d="M824.44,991.78l24,27c-1.66,2.35-4.06,3.91-6.19,5.72-10.75,9.15-21.48,18.33-32.38,27.3-14.69,12.08-29.92,23.48-45.24,34.75-22.87,16.82-46.45,32.59-70.41,47.81-22.83,14.5-46.36,27.83-70.06,40.82-15,8.21-30.41,15.55-45.88,22.81-19,8.92-38.37,16.75-58,24a461.67,461.67,0,0,1-56.43,16.34,262.11,262.11,0,0,1-33,5.24,224.81,224.81,0,0,1-39.17.58,154.84,154.84,0,0,1-47.92-11.3c-24.12-9.94-43.57-25.79-59.11-46.6-12.77-17.11-21.54-36.18-27.34-56.66a214.46,214.46,0,0,1-7.1-38.5,244,244,0,0,1-.91-34.73,332.84,332.84,0,0,1,11.85-72.83,445.33,445.33,0,0,1,21.09-59.1c14.74-33.88,32.89-65.89,53.05-96.8,3.08-4.73,6.25-9.4,9.38-14.1.42-.61.82-1.24,1.25-1.84,1.6-2.19,1.81-2.23,3.78-.63q2.08,1.69,4.12,3.42c5.58,4.68,11.06,9.48,16.76,14,3.29,2.61,3.56,6.31,4.37,9.87.21.91-.47,1.67-1,2.42-2.11,3.24-4.23,6.47-6.3,9.73a671.14,671.14,0,0,0-34.47,60.34c-14.87,29.69-27.26,60.36-35.38,92.63a316.09,316.09,0,0,0-7.9,43.34,239.8,239.8,0,0,0-1.37,36.92c.92,19.4,4,38.39,11.46,56.48,5.06,12.34,11.75,23.67,21,33.41,12.17,12.86,27.1,21.08,44,25.91,17.49,5,35.33,6.18,53.41,4.83,6.37-.48,12.72-1,19.07-1.8a252.14,252.14,0,0,0,28.83-5.61c11.41-2.75,22.74-5.77,33.89-9.43,13.55-4.44,26.81-9.66,40-15,28.17-11.3,55.18-25,81.9-39.32,14.15-7.57,27.83-16,41.61-24.18,22.6-13.49,44.34-28.27,66-43.24,21-14.55,41-30.46,61-46.37,10.12-8,20-16.33,29.68-24.95C821.65,993.41,822.66,992,824.44,991.78Z"/><path class="cls-4" d="M428.46,553.3a41.94,41.94,0,0,1-12.26-1.82,30.34,30.34,0,0,1-10.06-5.05l4.75-8.57a25.45,25.45,0,0,0,7.81,4.24,28.53,28.53,0,0,0,9.59,1.62c3.95,0,7-.81,9.24-2.42a8.27,8.27,0,0,0,.26-13q-3.06-2.37-9.84-2.37h-5.43v-7.55l17-20.19,1.45,4.15H409v-9.24H449.5v7.38l-17,20.19-5.77-3.39h3.31q10.94,0,16.41,4.87A16,16,0,0,1,452,534.64a17.63,17.63,0,0,1-2.55,9.25,18.2,18.2,0,0,1-7.76,6.83Q436.43,553.3,428.46,553.3Z"/><path class="cls-4" d="M484.87,553.3A26.57,26.57,0,0,1,471,549.87a22.27,22.27,0,0,1-8.82-10q-3.06-6.54-3.05-16.12,0-10.18,3.69-17.22a25.3,25.3,0,0,1,10.26-10.69,30.63,30.63,0,0,1,15.15-3.65,39,39,0,0,1,8.61.93,20.32,20.32,0,0,1,7,2.89l-4.07,8.31a16.27,16.27,0,0,0-5.31-2.25,27.55,27.55,0,0,0-6-.63q-8.4,0-13.32,5.17t-4.92,15.27c0,1.08,0,2.33.09,3.78a22.92,22.92,0,0,0,.59,4.37l-3.39-3.74a16.1,16.1,0,0,1,4.2-5.81,17.89,17.89,0,0,1,6.36-3.52,26.08,26.08,0,0,1,8-1.19,23.34,23.34,0,0,1,10.43,2.25,18.12,18.12,0,0,1,7.3,6.36,17.11,17.11,0,0,1,2.71,9.63,18,18,0,0,1-2.88,10.19,19.28,19.28,0,0,1-7.81,6.7A25.07,25.07,0,0,1,484.87,553.3Zm-.59-8.65a14,14,0,0,0,6-1.23,9.37,9.37,0,0,0,5.6-8.87,9.14,9.14,0,0,0-3.22-7.38c-2.15-1.81-5-2.71-8.65-2.71a14.05,14.05,0,0,0-6.24,1.31,10.78,10.78,0,0,0-4.24,3.61,9,9,0,0,0-1.57,5.26,9.19,9.19,0,0,0,1.44,5,10,10,0,0,0,4.2,3.65A14.9,14.9,0,0,0,484.28,544.65Z"/><path class="cls-4" d="M537.14,553.3a23.22,23.22,0,0,1-12.69-3.56,24.07,24.07,0,0,1-8.86-10.39q-3.23-6.84-3.23-16.59t3.23-16.59a24.07,24.07,0,0,1,8.86-10.39,24.45,24.45,0,0,1,25.41,0,24.43,24.43,0,0,1,8.87,10.39Q562,513,562,522.76t-3.26,16.59a24.43,24.43,0,0,1-8.87,10.39A23.13,23.13,0,0,1,537.14,553.3Zm0-9.58a11.83,11.83,0,0,0,7.21-2.25,14.7,14.7,0,0,0,4.79-6.92,41,41,0,0,0,0-23.63,14.69,14.69,0,0,0-4.79-6.87,12.48,12.48,0,0,0-14.3,0,14.47,14.47,0,0,0-4.83,6.87,41,41,0,0,0,0,23.63,14.48,14.48,0,0,0,4.83,6.92A11.77,11.77,0,0,0,537.14,543.72Z"/><path class="cls-5" d="M624.86,499.68a6.7,6.7,0,0,1-4.88-1.86,6.3,6.3,0,0,1,0-9,6.8,6.8,0,0,1,4.88-1.82,7,7,0,0,1,4.88,1.74,5.66,5.66,0,0,1,1.91,4.37,6.48,6.48,0,0,1-1.87,4.7A6.56,6.56,0,0,1,624.86,499.68Zm-5.35,52.77v-45.3h10.61v45.3Z"/><path class="cls-6" d="M701.21,506.64a21.13,21.13,0,0,1,9.63,2.12,15.2,15.2,0,0,1,6.58,6.49,23.48,23.48,0,0,1,2.37,11.24v26h-10.6v-24.6q0-6-2.63-9t-7.55-3a12.15,12.15,0,0,0-6.15,1.53,10.31,10.31,0,0,0-4.16,4.49,16.87,16.87,0,0,0-1.48,7.55v23H676.61v-24.6q0-6-2.63-9t-7.55-3a12.15,12.15,0,0,0-6.15,1.53,10.31,10.31,0,0,0-4.16,4.49,16.87,16.87,0,0,0-1.48,7.55v23H644v-45.3h10.1V519.2l-1.78-3.57a15.34,15.34,0,0,1,6.66-6.7,21.08,21.08,0,0,1,10-2.29,19.52,19.52,0,0,1,11.08,3.14,15.1,15.1,0,0,1,6.23,9.5l-4.15-1.44a17.53,17.53,0,0,1,7.29-8.15A22.56,22.56,0,0,1,701.21,506.64Z"/><path class="cls-7" d="M790.55,506.64a21.13,21.13,0,0,1,9.63,2.12,15.26,15.26,0,0,1,6.58,6.49,23.48,23.48,0,0,1,2.37,11.24v26h-10.6v-24.6q0-6-2.63-9c-1.76-2-4.27-3-7.55-3a12.15,12.15,0,0,0-6.15,1.53,10.25,10.25,0,0,0-4.16,4.49,16.86,16.86,0,0,0-1.49,7.55v23H766v-24.6q0-6-2.63-9c-1.76-2-4.27-3-7.55-3a12.15,12.15,0,0,0-6.15,1.53,10.25,10.25,0,0,0-4.16,4.49,16.86,16.86,0,0,0-1.49,7.55v23h-10.6v-45.3h10.1V519.2l-1.79-3.57a15.45,15.45,0,0,1,6.66-6.7,21.15,21.15,0,0,1,10-2.29,19.49,19.49,0,0,1,11.07,3.14,15.12,15.12,0,0,1,6.24,9.5l-4.16-1.44a17.55,17.55,0,0,1,7.3-8.15A22.51,22.51,0,0,1,790.55,506.64Z"/><path class="cls-7" d="M844.09,553.05a27.59,27.59,0,0,1-13.2-3,21.88,21.88,0,0,1-8.74-8.28,23.14,23.14,0,0,1-3.09-12,23.55,23.55,0,0,1,3-12,21.65,21.65,0,0,1,8.31-8.19,24.34,24.34,0,0,1,12.09-3,23.74,23.74,0,0,1,11.8,2.89,20.82,20.82,0,0,1,8.14,8.14,24.8,24.8,0,0,1,3,12.39c0,.45,0,1,0,1.52s-.07,1.11-.13,1.62H827.46v-7.05h32.15l-4.16,2.21a13,13,0,0,0-1.61-6.87,12.4,12.4,0,0,0-4.62-4.67,13.22,13.22,0,0,0-6.75-1.7,13.42,13.42,0,0,0-6.83,1.7,12.06,12.06,0,0,0-4.58,4.71,14.52,14.52,0,0,0-1.65,7.08v1.7a13.85,13.85,0,0,0,1.86,7.21,12.45,12.45,0,0,0,5.26,4.84,17.29,17.29,0,0,0,7.81,1.7,18.82,18.82,0,0,0,6.87-1.19,14.53,14.53,0,0,0,5.43-3.74l5.69,6.54a20,20,0,0,1-7.68,5.47A27.58,27.58,0,0,1,844.09,553.05Z"/><path class="cls-7" d="M875.56,552.45v-45.3h10.1v12.47L884.47,516a14.3,14.3,0,0,1,6.41-7,22.51,22.51,0,0,1,10.9-2.38v10.1a7.16,7.16,0,0,0-1.28-.22c-.39,0-.79,0-1.18,0q-6,0-9.59,3.52t-3.56,10.48v22Z"/><path class="cls-7" d="M925.19,553.05a39.63,39.63,0,0,1-10.9-1.49A28.18,28.18,0,0,1,906,548l4.07-8.06a31.12,31.12,0,0,0,15.78,4.49q5,0,7.26-1.35a4.13,4.13,0,0,0,2.24-3.65,3.16,3.16,0,0,0-1.52-2.84,11.93,11.93,0,0,0-4-1.49c-1.64-.34-3.47-.65-5.47-.93s-4-.67-6-1.15a20.62,20.62,0,0,1-5.47-2.12,11.35,11.35,0,0,1-4-3.77,11.56,11.56,0,0,1-1.52-6.28,11.91,11.91,0,0,1,2.46-7.51,15.7,15.7,0,0,1,6.91-4.92,29,29,0,0,1,10.56-1.74,43.18,43.18,0,0,1,9.25,1,25.12,25.12,0,0,1,7.72,2.88l-4.07,8.06a21.45,21.45,0,0,0-6.49-2.67,30.09,30.09,0,0,0-6.49-.72q-4.83,0-7.17,1.44a4.21,4.21,0,0,0-2.33,3.65,3.42,3.42,0,0,0,1.52,3.05,12.56,12.56,0,0,0,4,1.62,51.19,51.19,0,0,0,5.47,1,49.42,49.42,0,0,1,6,1.15,25.31,25.31,0,0,1,5.47,2.08,10.44,10.44,0,0,1,4,3.69,11.24,11.24,0,0,1,1.52,6.19,11.46,11.46,0,0,1-2.5,7.38,16.16,16.16,0,0,1-7.08,4.88A30.87,30.87,0,0,1,925.19,553.05Z"/><path class="cls-7" d="M976.18,553.05A27.58,27.58,0,0,1,963,550a21.88,21.88,0,0,1-8.74-8.28,23.15,23.15,0,0,1-3.1-12,23.56,23.56,0,0,1,3-12,21.58,21.58,0,0,1,8.31-8.19,24.31,24.31,0,0,1,12.09-3,23.73,23.73,0,0,1,11.79,2.89,20.84,20.84,0,0,1,8.15,8.14,24.8,24.8,0,0,1,3,12.39c0,.45,0,1,0,1.52s-.08,1.11-.13,1.62H959.55v-7.05h32.16l-4.16,2.21a13,13,0,0,0-1.61-6.87,12.4,12.4,0,0,0-4.62-4.67,13.25,13.25,0,0,0-6.75-1.7,13.39,13.39,0,0,0-6.83,1.7,12,12,0,0,0-4.58,4.71,14.53,14.53,0,0,0-1.66,7.08v1.7a13.86,13.86,0,0,0,1.87,7.21,12.45,12.45,0,0,0,5.26,4.84,17.26,17.26,0,0,0,7.81,1.7,18.9,18.9,0,0,0,6.87-1.19,14.53,14.53,0,0,0,5.43-3.74l5.68,6.54a19.93,19.93,0,0,1-7.67,5.47A27.59,27.59,0,0,1,976.18,553.05Z"/><path d="M423.89,641a23.78,23.78,0,0,1-7.69-1.24,15.68,15.68,0,0,1-5.78-3.19l1.86-3.92a16.16,16.16,0,0,0,5.13,2.92,18.43,18.43,0,0,0,6.48,1.15,14.71,14.71,0,0,0,5-.7,5.84,5.84,0,0,0,2.81-1.94,4.61,4.61,0,0,0,.91-2.79,3.81,3.81,0,0,0-1.19-2.91,8.64,8.64,0,0,0-3.06-1.78,33.71,33.71,0,0,0-4.15-1.19c-1.51-.33-3-.73-4.55-1.18a20.6,20.6,0,0,1-4.17-1.73,8.55,8.55,0,0,1-3-2.84,8.32,8.32,0,0,1-1.16-4.6,9.19,9.19,0,0,1,1.44-5,9.89,9.89,0,0,1,4.42-3.67,18.2,18.2,0,0,1,7.61-1.38,23.8,23.8,0,0,1,6.09.8,17.09,17.09,0,0,1,5.22,2.31l-1.65,4a16.22,16.22,0,0,0-4.78-2.18,18.81,18.81,0,0,0-4.88-.68,13.47,13.47,0,0,0-4.87.75,6.08,6.08,0,0,0-2.79,2,4.79,4.79,0,0,0-.88,2.82,3.84,3.84,0,0,0,1.18,3,8.37,8.37,0,0,0,3.07,1.76,39.81,39.81,0,0,0,4.14,1.18c1.51.36,3,.75,4.55,1.19a19.06,19.06,0,0,1,4.17,1.7,8.79,8.79,0,0,1,3.05,2.82,8.08,8.08,0,0,1,1.15,4.52,9,9,0,0,1-1.46,4.95,10,10,0,0,1-4.49,3.67A18.62,18.62,0,0,1,423.89,641Z"/><path d="M465.76,641a20.14,20.14,0,0,1-7.42-1.34,17.2,17.2,0,0,1-5.88-3.77,17.76,17.76,0,0,1-3.89-5.7,19,19,0,0,1,0-14.38,17.53,17.53,0,0,1,9.82-9.47,21.24,21.24,0,0,1,14.93.05,15.37,15.37,0,0,1,5.86,4.1l-3.27,3.16a13.09,13.09,0,0,0-4.52-3.14,14,14,0,0,0-5.38-1,14.78,14.78,0,0,0-5.5,1,13.06,13.06,0,0,0-4.4,2.81,12.63,12.63,0,0,0-2.89,4.3,14.67,14.67,0,0,0,0,10.8,12.54,12.54,0,0,0,2.89,4.3,13.08,13.08,0,0,0,4.4,2.82,14.78,14.78,0,0,0,5.5,1,14,14,0,0,0,5.38-1,12.72,12.72,0,0,0,4.52-3.19l3.27,3.17a15.64,15.64,0,0,1-5.86,4.12A19.72,19.72,0,0,1,465.76,641Z"/><path d="M485.36,640.56l15.93-35.18h5l16,35.18H517l-14.23-32.37h2l-14.22,32.37Zm6.79-8.79,1.35-4h19.81l1.45,4Z"/><path d="M532.66,640.56V605.38h5v30.81h19.05v4.37Z"/><path d="M567.69,640.56V605.38h5v35.18Z"/><path d="M588.45,640.56V605.38h4.12l23.27,28.9h-2.16v-28.9h5v35.18h-4.12l-23.28-28.9h2.17v28.9Z"/><path d="M650.32,641a20.44,20.44,0,0,1-7.49-1.34,17.46,17.46,0,0,1-9.85-9.47,19,19,0,0,1,0-14.38,17.42,17.42,0,0,1,3.95-5.7,17.75,17.75,0,0,1,6-3.77,20.59,20.59,0,0,1,7.54-1.33,20.89,20.89,0,0,1,7.64,1.35,15.14,15.14,0,0,1,5.88,4.08l-3.11,3.11a13.79,13.79,0,0,0-4.7-3.09,16,16,0,0,0-11.11,0,13.17,13.17,0,0,0-4.47,2.81,12.57,12.57,0,0,0-2.92,4.3,13.93,13.93,0,0,0-1,5.4,13.75,13.75,0,0,0,1,5.35,12.88,12.88,0,0,0,2.92,4.33,13.19,13.19,0,0,0,4.45,2.84,15.07,15.07,0,0,0,5.57,1,16.63,16.63,0,0,0,5.41-.88,13.22,13.22,0,0,0,4.8-2.94l2.86,3.82a17.71,17.71,0,0,1-6.1,3.34A23.15,23.15,0,0,1,650.32,641Zm8.5-5.13V622.77h4.82v13.72Z"/><path d="M726,640.56l-15.48-35.18h5.43l14.22,32.47H727l14.33-32.47h5l-15.44,35.18Z"/><path d="M756,640.56V605.38h5v35.18Z"/><path d="M787,641a23.74,23.74,0,0,1-7.69-1.24,15.6,15.6,0,0,1-5.78-3.19l1.86-3.92a16.22,16.22,0,0,0,5.12,2.92,18.53,18.53,0,0,0,6.49,1.15,14.61,14.61,0,0,0,5-.7,5.82,5.82,0,0,0,2.82-1.94,4.61,4.61,0,0,0,.9-2.79,3.8,3.8,0,0,0-1.18-2.91,8.73,8.73,0,0,0-3.06-1.78,33.71,33.71,0,0,0-4.15-1.19c-1.51-.33-3-.73-4.55-1.18a20.6,20.6,0,0,1-4.17-1.73,8.55,8.55,0,0,1-3-2.84,8.32,8.32,0,0,1-1.16-4.6,9.26,9.26,0,0,1,1.43-5,9.92,9.92,0,0,1,4.43-3.67,18.2,18.2,0,0,1,7.61-1.38,23.72,23.72,0,0,1,6.08.8,17.15,17.15,0,0,1,5.23,2.31l-1.66,4a16.28,16.28,0,0,0-4.77-2.18,18.81,18.81,0,0,0-4.88-.68A13.43,13.43,0,0,0,783,610a6,6,0,0,0-2.79,2,4.79,4.79,0,0,0-.88,2.82,3.84,3.84,0,0,0,1.18,3,8.41,8.41,0,0,0,3.06,1.76,40,40,0,0,0,4.15,1.18c1.51.36,3,.75,4.55,1.19a19.26,19.26,0,0,1,4.17,1.7,8.67,8.67,0,0,1,3,2.82,8.09,8.09,0,0,1,1.16,4.52,9,9,0,0,1-1.46,4.95,10,10,0,0,1-4.5,3.67A18.57,18.57,0,0,1,787,641Z"/><path d="M813.17,640.56V605.38h5v35.18Z"/><path d="M849.81,641a20.27,20.27,0,0,1-7.46-1.36,17.84,17.84,0,0,1-6-3.8,17.41,17.41,0,0,1-3.93-5.7,18.91,18.91,0,0,1,0-14.28,17.51,17.51,0,0,1,3.93-5.7,17.85,17.85,0,0,1,5.93-3.8,21.38,21.38,0,0,1,14.9,0,17.87,17.87,0,0,1,5.93,3.77,17,17,0,0,1,3.92,5.7,19.42,19.42,0,0,1,0,14.38,16.94,16.94,0,0,1-3.92,5.7,17.71,17.71,0,0,1-5.93,3.77A20.07,20.07,0,0,1,849.81,641Zm0-4.48a14.31,14.31,0,0,0,5.41-1,12.83,12.83,0,0,0,4.32-2.84,13.45,13.45,0,0,0,2.87-4.3,14.57,14.57,0,0,0,0-10.76,13.3,13.3,0,0,0-2.87-4.29,12.69,12.69,0,0,0-4.32-2.84,15.1,15.1,0,0,0-10.86,0,13.06,13.06,0,0,0-7.24,7.13,14.57,14.57,0,0,0,0,10.76,13,13,0,0,0,7.24,7.14A14.44,14.44,0,0,0,849.81,636.49Z"/><path d="M881.33,640.56V605.38h4.12l23.27,28.9h-2.16v-28.9h5v35.18h-4.12l-23.28-28.9h2.17v28.9Z"/><path d="M1133.74,223V192.86h-11.81v-4.28h28.49v4.28h-11.81V223Z"/><path d="M1160.85,223V188.58h4l15.45,26h-2.16l15.25-26h4l0,34.44h-4.72l0-27h1.13l-13.58,22.83H1178L1164.34,196h1.23v27Z"/></svg>