<svg xmlns="http://www.w3.org/2000/svg" xmlns:xlink="http://www.w3.org/1999/xlink" width="103" height="104" viewBox="0 0 103 104">
  <defs>
    <clipPath id="clip-path">
      <ellipse id="Ellipse_580" data-name="Ellipse 580" cx="51.5" cy="52" rx="51.5" ry="52" transform="translate(914.921 1249)" fill="#fff" stroke="#707070" stroke-width="1"/>
    </clipPath>
  </defs>
  <g id="Mask_Group_7" data-name="Mask Group 7" transform="translate(-914.921 -1249)" clip-path="url(#clip-path)">
    <path id="mail_FILL1_wght400_GRAD0_opsz48" d="M13.034,74.028a5.309,5.309,0,0,1-3.874-1.66A5.309,5.309,0,0,1,7.5,68.494V20.534A5.309,5.309,0,0,1,9.16,16.66,5.309,5.309,0,0,1,13.034,15H75.751a5.309,5.309,0,0,1,3.874,1.66,5.309,5.309,0,0,1,1.66,3.874v47.96a5.674,5.674,0,0,1-5.534,5.534ZM44.392,45.621a1.987,1.987,0,0,0,.784-.138q.323-.138.692-.323L74.829,26.252a1.774,1.774,0,0,0,.692-.738,2.236,2.236,0,0,0,.231-1.015,2.149,2.149,0,0,0-1.061-1.891,1.823,1.823,0,0,0-2.167.046L44.392,40.64,16.354,22.655a1.948,1.948,0,0,0-2.214-.092,2.029,2.029,0,0,0-1.107,1.845,2.185,2.185,0,0,0,.277,1.061,2.387,2.387,0,0,0,.646.784L42.917,45.16q.369.184.692.323a1.987,1.987,0,0,0,.784.138Z" transform="translate(922.029 1256.486)" fill="#fed402"/>
  </g>
</svg>
