<svg xmlns="http://www.w3.org/2000/svg" xmlns:xlink="http://www.w3.org/1999/xlink" width="87" height="88" viewBox="0 0 87 88">
  <defs>
    <clipPath id="clip-path">
      <ellipse id="Ellipse_579" data-name="Ellipse 579" cx="43.5" cy="44" rx="43.5" ry="44" transform="translate(436.424 1254.47)" fill="#fff" stroke="#707070" stroke-width="1"/>
    </clipPath>
  </defs>
  <g id="Mask_Group_6" data-name="Mask Group 6" transform="translate(-436.424 -1254.47)" clip-path="url(#clip-path)">
    <g id="phone_call" transform="translate(446.094 1268.594)">
      <path id="Path_625" data-name="Path 625" d="M44.107,51.555c.136-.272.136-.543.272-.679a5.826,5.826,0,0,1,5.568-4.21h8.148A1.777,1.777,0,0,1,60,48.024c1.358,3.938,2.58,7.876,3.938,11.815a1.908,1.908,0,0,1-.272,1.9c-.951,1.494-2.037,2.988-2.988,4.481-.272.272-.272.543,0,.951a32.36,32.36,0,0,0,8.012,9.642,28.359,28.359,0,0,0,5.7,3.938.866.866,0,0,0,.815,0,49.124,49.124,0,0,0,4.346-2.988,2.294,2.294,0,0,1,2.309-.272c3.667,1.222,7.469,2.444,11.272,3.8,1.358.407,1.765.951,1.765,2.444v7.2a5.989,5.989,0,0,1-6.247,6.247,40.516,40.516,0,0,1-20.913-6.247,48.54,48.54,0,0,1-20.778-24.58,38.017,38.017,0,0,1-2.444-11c0-.272-.136-.407-.136-.679A12.69,12.69,0,0,1,44.107,51.555Z" transform="translate(-44.107 -37.432)" fill="#00b1f8"/>
      <path id="Path_626" data-name="Path 626" d="M82.554,64a13.944,13.944,0,0,1-6.518-2.716c-4.617-3.8-6.383-8.691-4.889-14.395s5.432-9.1,11.272-10.321a10.278,10.278,0,0,1,2.037-.136H100.48a13.943,13.943,0,0,1,13.58,11,14.083,14.083,0,0,1-11,16.568,20.342,20.342,0,0,1-2.988.272H93.826a1.806,1.806,0,0,0-1.086.407c-2.173,2.309-4.481,4.481-6.654,6.654a3.618,3.618,0,0,1-1.358.815c-1.222.272-2.173-.679-2.173-2.037V64Zm3.938-13.716a2.19,2.19,0,0,0-2.037-2.037,1.97,1.97,0,1,0,2.037,2.037Zm5.975,1.9a2.069,2.069,0,0,0,2.037-1.9,1.973,1.973,0,0,0-1.9-2.037,2.089,2.089,0,0,0-2.037,2.037A1.782,1.782,0,0,0,92.468,52.183Zm9.914-1.9a1.97,1.97,0,1,0-3.938-.136,2.087,2.087,0,0,0,1.9,2.173A2.19,2.19,0,0,0,102.382,50.281Z" transform="translate(-46.703 -36.43)" fill="#fed402"/>
    </g>
  </g>
</svg>
