<svg xmlns="http://www.w3.org/2000/svg" width="249" height="246" viewBox="0 0 249 246">
  <g id="Group_79" data-name="Group 79" transform="translate(-1282 -4384)">
    <ellipse id="Ellipse_28" data-name="Ellipse 28" cx="124.5" cy="123" rx="124.5" ry="123" transform="translate(1282 4384)" fill="rgba(245,84,72,0.2)"/>
    <g id="Group_77" data-name="Group 77" transform="translate(-238)">
      <ellipse id="Ellipse_26" data-name="Ellipse 26" cx="36.5" cy="36" rx="36.5" ry="36" transform="translate(1608 4471)" fill="#f55448"/>
      <path id="Union_6" data-name="Union 6" d="M-1991.309,17.19V11.309h-5.881A1.809,1.809,0,0,1-1999,9.5a1.809,1.809,0,0,1,1.809-1.809h5.881V1.81A1.81,1.81,0,0,1-1989.5,0a1.809,1.809,0,0,1,1.809,1.81V7.691h5.881A1.809,1.809,0,0,1-1980,9.5a1.809,1.809,0,0,1-1.809,1.81h-5.881V17.19A1.81,1.81,0,0,1-1989.5,19,1.81,1.81,0,0,1-1991.309,17.19Z" transform="translate(3634 4498)" fill="#fff"/>
    </g>
  </g>
</svg>
