<svg xmlns="http://www.w3.org/2000/svg" xmlns:xlink="http://www.w3.org/1999/xlink" width="136" height="136" viewBox="0 0 136 136">
  <defs>
    <filter id="Ellipse_8" x="0" y="0" width="136" height="136" filterUnits="userSpaceOnUse">
      <feOffset dy="3" input="SourceAlpha"/>
      <feGaussianBlur stdDeviation="3" result="blur"/>
      <feFlood flood-opacity="0.161"/>
      <feComposite operator="in" in2="blur"/>
      <feComposite in="SourceGraphic"/>
    </filter>
  </defs>
  <g id="Group_10" data-name="Group 10" transform="translate(-648 -936)">
    <g transform="matrix(1, 0, 0, 1, 648, 936)" filter="url(#Ellipse_8)">
      <g id="Ellipse_8-2" data-name="Ellipse 8" transform="translate(9 6)" fill="#2cdabd" stroke="#fff" stroke-width="2">
        <circle cx="59" cy="59" r="59" stroke="none"/>
        <circle cx="59" cy="59" r="58" fill="none"/>
      </g>
    </g>
    <g id="Group_9" data-name="Group 9" transform="translate(690.97 970.606)" opacity="0.81">
      <path id="Icon_feather-shield" data-name="Icon feather-shield" d="M30.688,64.719S55.375,52.375,55.375,33.859v-21.6L30.688,3,6,12.258v21.6C6,52.375,30.688,64.719,30.688,64.719Z" transform="translate(-6 -3)" fill="#fff"/>
      <g id="Group_8" data-name="Group 8" transform="translate(8.319 14.222)">
        <g id="Ellipse_9" data-name="Ellipse 9" transform="translate(0 0)" fill="#fff" stroke="#2cdabd" stroke-width="2">
          <circle cx="16.992" cy="16.992" r="16.992" stroke="none"/>
          <circle cx="16.992" cy="16.992" r="15.992" fill="none"/>
        </g>
        <path id="Icon_material-done" data-name="Icon material-done" d="M10.5,18.612,6.449,14.566,5.1,15.915l5.4,5.4L22.056,9.749,20.707,8.4Z" transform="translate(3.836 1.978)" fill="#2cdabd"/>
      </g>
    </g>
  </g>
</svg>
