<svg xmlns="http://www.w3.org/2000/svg" width="645.199" height="566.667" viewBox="0 0 645.199 566.667">
  <g id="SvgjsG1008" transform="translate(-106)">
    <g id="Group_39782" data-name="Group 39782">
      <path id="Path_552" data-name="Path 552" d="M0,0H645.2V566.667H0Z" transform="translate(106)" fill="#c4d0ec"/>
      <path id="Path_553" data-name="Path 553" d="M678.167,203.583A151.583,151.583,0,1,0,526.583,355.167,151.583,151.583,0,0,0,678.167,203.583Zm-246.5,0A94.917,94.917,0,1,1,526.583,298.5,94.916,94.916,0,0,1,431.667,203.583Z" transform="translate(-20.833 -2.889)" fill="#3d3d3d" fill-rule="evenodd" opacity="0.76"/>
      <path id="Path_554" data-name="Path 554" d="M578.944,331.972a42.972,42.972,0,1,0-42.972,42.972A42.972,42.972,0,0,0,578.944,331.972Zm-57.611,0a14.639,14.639,0,1,1,14.639,14.639A14.639,14.639,0,0,1,521.333,331.972Z" transform="translate(-27.389 -16.056)" fill="#fff" fill-rule="evenodd" opacity="0.76"/>
      <circle id="Ellipse_1546" data-name="Ellipse 1546" cx="27.058" cy="27.058" r="27.058" transform="translate(156.81 157.208)" fill="#203871"/>
      <circle id="Ellipse_1547" data-name="Ellipse 1547" cx="30.279" cy="30.279" r="30.279" transform="translate(241.848 74.747)" fill="#5f8d70"/>
      <g id="Group_39781" data-name="Group 39781" transform="translate(597.462 372.381)">
        <circle id="Ellipse_1548" data-name="Ellipse 1548" cx="30.279" cy="30.279" r="30.279" transform="translate(0 0)" fill="#fff"/>
      </g>
      <path id="Path_555" data-name="Path 555" d="M686.422,302.341H356.133c-9.782,0-17.133-6.607-17.133-14.1V114.328c0-7.49,7.352-14.1,17.133-14.1H686.422c9.782,0,17.133,6.607,17.133,14.1V288.244C703.556,295.734,696.2,302.341,686.422,302.341Z" transform="translate(-18.833 -5.568)" fill="#fff" stroke="#e5e1e2" stroke-width="4"/>
      <path id="Path_556" data-name="Path 556" d="M370.59,161.84v64.783a6.326,6.326,0,0,0,6.292,6.365h38.136l16.646-23.728a2.3,2.3,0,0,1,3.572,0l5.828,8.309.045.064.04-.057,12.5-18.148a2.484,2.484,0,0,1,3.895,0L474.1,223.466V161.84a6.331,6.331,0,0,0-6.293-6.364H376.882a6.326,6.326,0,0,0-6.292,6.364Z" transform="translate(-20.588 -8.638)" fill="#fb558e" fill-rule="evenodd"/>
      <path id="Path_557" data-name="Path 557" d="M400.85,200.9a10.994,10.994,0,1,1,10.993-10.994A10.994,10.994,0,0,1,400.85,200.9Z" transform="translate(-21.659 -9.94)" fill="#fff"/>
      <path id="Path_558" data-name="Path 558" d="M703.556,122.161H339v-5.028A17.136,17.136,0,0,1,356.133,100H686.422a17.136,17.136,0,0,1,17.133,17.133Z" transform="translate(-18.833 -5.556)" fill="#d8b420" stroke="#e5e1e2" stroke-width="4"/>
      <path id="Path_559" data-name="Path 559" d="M356.938,116.46a4.086,4.086,0,1,0-4.086-4.086,4.086,4.086,0,0,0,4.086,4.086Zm17.022,0a4.085,4.085,0,1,0-4.085-4.085,4.085,4.085,0,0,0,4.085,4.085Zm16.341,0a4.086,4.086,0,1,0-4.086-4.086,4.086,4.086,0,0,0,4.086,4.086Z" transform="translate(-19.603 -6.016)" fill="#e5e1e2"/>
      <rect id="Rectangle_1551" data-name="Rectangle 1551" width="185.408" height="13.394" rx="6.697" transform="translate(469.847 146.838)" fill="#545a68"/>
      <rect id="Rectangle_1552" data-name="Rectangle 1552" width="185.408" height="13.394" rx="6.697" transform="translate(469.847 177.858)" fill="#545a68"/>
      <rect id="Rectangle_1553" data-name="Rectangle 1553" width="176.519" height="12.885" rx="6.442" transform="translate(468.616 208.747)" fill="#545a68"/>
      <rect id="Rectangle_1554" data-name="Rectangle 1554" width="185.408" height="13.394" rx="6.697" transform="translate(469.847 239.895)" fill="#545a68"/>
      <path id="Path_560" data-name="Path 560" d="M285.857,415.083a4.231,4.231,0,0,1,4.789,3.659l14.86,117.274a4.156,4.156,0,1,1-8.246,1.05L282.249,419.812a4.232,4.232,0,0,1,3.608-4.729Z" transform="translate(-15.679 -23.058)" fill="#fff" stroke="#e5e1e2" stroke-linecap="round" stroke-linejoin="round" stroke-width="4" fill-rule="evenodd"/>
      <path id="Path_561" data-name="Path 561" d="M283.843,415.083a4.233,4.233,0,0,0-4.79,3.659l-14.86,117.274a4.157,4.157,0,1,0,8.247,1.05l15.011-117.255a4.233,4.233,0,0,0-3.608-4.729Zm44.861,0a4.233,4.233,0,0,1,4.79,3.659l14.86,117.274a4.157,4.157,0,1,1-8.247,1.05L325.1,419.812A4.233,4.233,0,0,1,328.7,415.083Zm-93.639,0a4.232,4.232,0,0,0-4.79,3.659l-14.86,117.274a4.156,4.156,0,1,0,8.246,1.05l15.012-117.255A4.233,4.233,0,0,0,235.065,415.083Z" transform="translate(-11.966 -23.058)" fill="#fff" stroke="#e5e1e2" stroke-linecap="round" stroke-linejoin="round" stroke-width="4" fill-rule="evenodd"/>
      <path id="Path_562" data-name="Path 562" d="M338.162,426.991a13.192,13.192,0,1,0,0-26.384H309.411a41.944,41.944,0,0,1-41.759-38.012l-4.763-50.58a32.156,32.156,0,0,0-64.075,5.481l5.069,65.895a47.222,47.222,0,0,0,47.083,43.6Z" transform="translate(-11.04 -15.715)" fill="#671200" stroke="#e5e1e2" stroke-linecap="round" stroke-linejoin="round" stroke-width="4" fill-rule="evenodd"/>
      <path id="Path_563" data-name="Path 563" d="M352.137,413.482a.208.208,0,0,1-.207.206H265.042A47.223,47.223,0,0,1,217.96,370.1L212.9,304.518a32.444,32.444,0,0,1-.036-4.491,18.446,18.446,0,0,1,17.181-17.1q.935-.054,1.885-.054a32.076,32.076,0,0,1,31.935,29.061l4.762,50.424a41.846,41.846,0,0,0,41.661,37.912h28.688a13.159,13.159,0,0,1,13.158,13.158v.053Z" transform="translate(-11.822 -15.715)" fill="#fff" fill-rule="evenodd"/>
      <path id="Path_564" data-name="Path 564" d="M217.849,369.986l-1.883.146Zm-5.058-65.579,1.883-.145Zm50.966,7.418,1.881-.178Zm4.762,50.424,1.88-.178Zm-38.582-79.432.109,1.886Zm122.09,130.554,1.889.008Zm-87.095-1.683h86.888v3.778H264.931Zm-45.2-41.847a45.334,45.334,0,0,0,45.2,41.847v3.778a49.112,49.112,0,0,1-48.966-45.334l3.766-.291Zm-5.058-65.578,5.058,65.578-3.766.291-5.058-65.579,3.766-.29Zm-.034-4.23a30.6,30.6,0,0,0,.034,4.23l-3.766.29a34.31,34.31,0,0,1-.038-4.752Zm17.181-15.38q-.894,0-1.777.051l-.217-3.772c.659-.038,1.325-.057,1.994-.057ZM261.876,312a30.188,30.188,0,0,0-30.055-27.35v-3.778a33.967,33.967,0,0,1,33.817,30.773Zm4.762,50.424L261.876,312l3.762-.355,4.761,50.424Zm43.542,39.623a43.735,43.735,0,0,1-43.542-39.623l3.761-.355a39.958,39.958,0,0,0,39.781,36.2Zm28.688,0H310.179v-3.778h28.688Zm11.269,11.269a11.269,11.269,0,0,0-11.269-11.269v-3.778a15.047,15.047,0,0,1,15.047,15.047Zm0,.045v-.045h3.778v.06ZM210.869,299.8a20.335,20.335,0,0,1,18.958-18.869l.217,3.772a16.557,16.557,0,0,0-15.4,15.329Zm140.95,111.888a1.682,1.682,0,0,0-1.682,1.675l3.778.015a2.1,2.1,0,0,1-2.1,2.087Z" transform="translate(-11.711 -15.604)" fill="#e5e1e2"/>
      <path id="Path_565" data-name="Path 565" d="M673.294,351.33a1.627,1.627,0,0,0,1.627-1.6,27.833,27.833,0,0,0-13.9-24.674,1.64,1.64,0,0,0-1.532,2.9,24.424,24.424,0,0,1,6.236,5.246,23.781,23.781,0,0,1,5.911,16.472,1.643,1.643,0,0,0,1.6,1.667A.1.1,0,0,1,673.294,351.33Zm5.26-42.2s18.966-35.777-49.076-60.856a4.7,4.7,0,0,0-6.222,5.449C627.553,272.348,641.638,315.893,678.554,309.128Z" transform="translate(-34.618 -13.776)" fill="#5f8d70"/>
      <path id="Path_566" data-name="Path 566" d="M699.664,350.955a1.272,1.272,0,0,0,.23-.013,1.637,1.637,0,0,0,1.383-1.858,70.482,70.482,0,0,0-31.71-49.306,1.633,1.633,0,1,0-1.694,2.793l.041.013A61.811,61.811,0,0,1,681.619,314.3a66.488,66.488,0,0,1,16.431,35.234A1.632,1.632,0,0,0,699.664,350.955Z" transform="translate(-37.06 -16.641)" fill="#fb558e"/>
      <path id="Path_567" data-name="Path 567" d="M690.547,350.812h.081a1.644,1.644,0,0,0,1.559-1.708c-.651-13.923,8.188-26.626,8.27-26.762a1.634,1.634,0,0,0-2.671-1.884c-.393.555-9.571,13.761-8.866,28.794a1.626,1.626,0,0,0,1.626,1.559Zm-4.691,2.4h.041a1.627,1.627,0,0,0,1.586-1.681l-1.4-52.966a1.634,1.634,0,1,0-3.267.094l1.4,52.953a1.647,1.647,0,0,0,1.641,1.6Z" transform="translate(-37.934 -16.499)" fill="#fb558e"/>
      <path id="Path_568" data-name="Path 568" d="M692.838,320.991s38.6,12.269,51.109-59.176a4.7,4.7,0,0,0-6.48-5.138c-17.556,7.551-57.888,29.2-44.629,64.314Zm-25,13.746s-34.691,20.891-63.446-45.7a4.7,4.7,0,0,1,5.111-6.507C628.335,285.811,672.584,297.51,667.839,334.737Z" transform="translate(-33.556 -14.238)" fill="#5f8d70"/>
      <path id="Path_569" data-name="Path 569" d="M677.461,312.764a6.812,6.812,0,0,0,12.635-.948c8.229-26.273,22.017-81.965-6.535-88.364C651.541,216.281,662.264,281.34,677.461,312.764Z" transform="translate(-36.82 -12.384)" fill="#5f8d70"/>
      <path id="Path_570" data-name="Path 570" d="M682.007,317.341h.041a.893.893,0,0,0,.854-.923l-3.009-74.468a.889.889,0,0,0-1.777.068l3,74.468A.885.885,0,0,0,682.007,317.341ZM668.1,334a.888.888,0,0,0,.569-1.573l-41.24-33.756a.886.886,0,1,0-1.126,1.369l41.24,33.756A.882.882,0,0,0,668.1,334Z" transform="translate(-34.777 -13.394)" fill="#303a52"/>
      <path id="Path_571" data-name="Path 571" d="M650.884,350.276a8.7,8.7,0,0,0-8.5,10.547l.758,3.43,1.587,7.28.745,3.443.261,1.189a37.362,37.362,0,0,0,73,0l.26-1.189.745-3.443,1.587-7.28.745-3.43a8.692,8.692,0,0,0-8.492-10.547H650.884Zm77.907,133.813H633.8a1.093,1.093,0,0,1-1.1-1.1v-5.5a1.094,1.094,0,0,1,1.1-1.1H728.8a1.094,1.094,0,0,1,1.1,1.1v5.5A1.113,1.113,0,0,1,728.792,484.089Z" transform="translate(-35.15 -19.46)" fill="#671200" stroke="#e5e1e2" stroke-linecap="round" stroke-linejoin="round" stroke-width="4"/>
      <path id="Path_572" data-name="Path 572" d="M658.537,410.715a6.721,6.721,0,0,1,6.417,8.717l-36.84,118.755a3.761,3.761,0,0,1-7.278-1.855L643.82,421.913l.65-3.234a9.919,9.919,0,0,1,9.724-7.965h4.344ZM740.85,536.333a3.76,3.76,0,0,1-7.278,1.855L695.607,415.84a3.955,3.955,0,0,1,3.778-5.125h13.451a3.393,3.393,0,0,1,3.323,2.711Z" transform="translate(-34.487 -22.817)" fill="#671200" stroke="#e5e1e2" stroke-linecap="round" stroke-linejoin="round" stroke-width="4"/>
      <path id="Path_573" data-name="Path 573" d="M637.723,409.28H725.96c1.469,0,2.653,1.591,2.653,3.563v14.563c0,1.972-1.184,3.564-2.653,3.564H637.723c-1.468,0-2.652-1.592-2.652-3.564V412.843C635.071,410.871,636.255,409.28,637.723,409.28Z" transform="translate(-35.282 -22.738)" fill="#671200" stroke="#e5e1e2" stroke-linecap="round" stroke-linejoin="round" stroke-width="4"/>
      <path id="Path_574" data-name="Path 574" d="M368.659,500.412s-7.348,14.842-1.324,19.519,21.97,13.444,21.97,13.444l-42.22-2.653,9.385-32.37Z" transform="translate(-19.282 -27.686)" fill="#fc85ae" fill-rule="evenodd"/>
      <path id="Path_575" data-name="Path 575" d="M347.177,506.266c1.329.635-.856,6.6,3.819,6.179s7.607-6.582,11.054-6.181,5.635,6.606,12.2,10.93,16.29,9.481,15.638,13.83-15.961,5.512-23.718,4.072-11.376-4.556-16.408-4.308-8.194-.367-9.772-3.6,5.656-21.655,7.189-20.923ZM300.969,362.022c12.782.57,83.923,16.306,96.848,18.979s23.853,17.139,14,33.889c-11.07,18.8-39.632,72.2-46.567,84.239-3.432,5.958-20.749,2.617-16.681-7.383C356.149,473.1,359.67,426.272,379,409.2c0,0-65.012,11.314-93.094-1.646-20.409-9.421-15.792-46.91,15.062-45.53Z" transform="translate(-15.195 -20.11)" fill="#303a52" fill-rule="evenodd"/>
      <path id="Path_576" data-name="Path 576" d="M394.844,276.129s-.145-7.6,3.493-13.034,3.783-11.209,6.536-11.02.026,13.608.026,13.608a35.316,35.316,0,0,0,6-3.023c2.51-1.688,10.12-10.01,11.9-8.536,3.016,2.513-1.842,16.687-4.486,19.522S402.564,284.4,402.564,284.4l-38.571,38.858-5.767-20.629,36.618-26.5Z" transform="translate(-19.901 -14.004)" fill="#fc85ae" fill-rule="evenodd"/>
      <path id="Path_577" data-name="Path 577" d="M312.893,267.92c5.946,13.791,16.833,39.126,21.322,46.684,5.624,9.465,14.493,13.636,24.879,6.613,2.172-1.47,8.412-6.609,8.412-6.609a37.057,37.057,0,0,0-10.078-22.561l-3.935,3.255s-11.159-28.605-20.135-45.176C325.583,235.791,303.842,246.955,312.893,267.92Zm-25.7-53.531v12.2l-8.961-7.216s-2.755-11.691-5-20.375c-1.4-5.446-4.827-23.875,8.951-23.011,11.287-19.9,44.159-7.582,44.421,16.726.314,29.236.058,40.62.058,40.62-18.589,1.066-29.051-1.621-39.474-18.947Z" transform="translate(-15.101 -9.226)" fill="#303a52" fill-rule="evenodd"/>
      <path id="Path_578" data-name="Path 578" d="M278.407,239.816s8.337-1.957,8.626-15.616.086-18.321.086-18.321l18.363-.331s.2,15.223.2,20.73c.009,13.388,9.853,14.485,9.853,14.485s-1.683,11.046-18.321,11.981c-12.991.732-18.809-12.927-18.809-12.927Z" transform="translate(-15.467 -11.419)" fill="#fc85ae" fill-rule="evenodd"/>
      <path id="Path_579" data-name="Path 579" d="M282.776,197.9c-8.191-.317-6.856,11.674,1.654,11.658,0,0,4.942,17.034,22.1,17.034,13.935,0,14.842-19.853,14.968-23.814.136-4.223.153-18.1.153-18.1l-39.2-.018Z" transform="translate(-15.405 -10.259)" fill="#fc85ae" fill-rule="evenodd"/>
      <path id="Path_580" data-name="Path 580" d="M282.319,197.37c3.394.559,2.983,2.807,3.905,2.61,4.687-1,23.66.318,26.1-10.115,3.039,6.518,3.782,8.12,10.476,9.87v-19.1l-42.335-4.061s.656,20.6,1.85,20.8Z" transform="translate(-15.582 -9.81)" fill="#303a52" fill-rule="evenodd"/>
      <path id="Path_581" data-name="Path 581" d="M279.43,240.353c10.462,6.407,22.556,8.756,33.814,1.8,18.373,36.228,22.952,79.452,18.533,127.226-26.791,10.607-49.308,8.521-68.478-3.6Z" transform="translate(-14.628 -13.353)" fill="#fb558e" fill-rule="evenodd"/>
      <path id="Path_582" data-name="Path 582" d="M417.478,501.164s-.222,17.468,14.172,24,24.635,6.137,23.331,11.187-38.749,4.844-42.245.9c-2.981-3.358-9.461-34.637-11.246-32.246l15.988-3.836Z" transform="translate(-22.305 -27.842)" fill="#fc85ae" fill-rule="evenodd"/>
      <path id="Path_583" data-name="Path 583" d="M398.8,517.786c2.205-1.587,4.06,7.567,10.053,5.021s1.266-10.957,5.038-12.509,11.053,6.791,20.724,8.818,17.523,3.8,19.755,7.565c1.922,3.236,0,4.27,0,4.27s-9.31,4.649-15.1,5.672c-8.4,1.487-32.695,2.477-35.356-.233-1.634-1.663-6.221-17.808-5.118-18.6ZM259.8,356.306s-18.583,39.244,7.532,52.721c25.254,13.032,100.86-2.382,100.86-2.382a91.775,91.775,0,0,0,0,20.578c3.528,25.337,20.309,67.549,23.86,72.853,4.909,7.335,19.866,1.8,20.148-4.3s-11.275-84.11-13.032-98.984-7.268-17.037-23.39-21.1c-3.7-.934-47.5-11.819-51.516-11.5C289.791,366.909,259.8,356.306,259.8,356.306Z" transform="translate(-14.077 -19.795)" fill="#303a52" fill-rule="evenodd"/>
      <path id="Path_584" data-name="Path 584" d="M279.145,240.382c17.326,56.756,27.717,137.222-26.394,123.224,28.744-52.924-10.332-76.744-1.475-104.1C254.3,250.158,278.919,239.648,279.145,240.382Zm32.44,1.371c6.612,16.583,9.79,29.6,12.755,53.936,2.473,20.272,1.235,62.108,1.235,62.108l8.171,1.607s5.84-64.632,3.888-72.955a327.993,327.993,0,0,0-9.825-34.89C325.426,244.553,311.585,241.753,311.585,241.753Z" transform="translate(-13.885 -13.353)" fill="#303a52" fill-rule="evenodd"/>
      <path id="Path_585" data-name="Path 585" d="M282.389,307.816s10.668-10.682,14.363-11.922,23.932-2.729,23.8.073c-.155,3-13.178,2.829-14.382,4.3s-2.879,12.966-7.431,14.1-13.96,4.487-13.96,4.487l-41.919,21.659,4.466-21.658Z" transform="translate(-13.492 -16.354)" fill="#fc85ae" fill-rule="evenodd"/>
      <path id="Path_586" data-name="Path 586" d="M249,260.322c-12.715,17.945-23.571,45.28-27.738,55.938s.037,26.732,18.36,23.576a39.522,39.522,0,0,0,5.731-1.756c6.737-9.236,7.919-17.165,5.4-24.225l-2.37,1s18.212-32.281,22.659-40.935C278.475,259.468,260.2,244.51,249,260.322Z" transform="translate(-12.21 -14.086)" fill="#303a52" fill-rule="evenodd"/>
      <path id="Path_587" data-name="Path 587" d="M306.088,535.839a6.705,6.705,0,0,0,6.544-5.245l36.141-162.115a6.71,6.71,0,1,0-13.1-2.919l-36.13,162.115A6.705,6.705,0,0,0,306.088,535.839Zm280.4,0a6.7,6.7,0,0,1-6.544-5.246L543.806,368.472a6.7,6.7,0,0,1,13.088-2.918l36.143,162.121A6.705,6.705,0,0,1,586.493,535.839Z" transform="translate(-16.632 -20.017)" fill="#671200" stroke="#e5e1e2" stroke-linecap="round" stroke-linejoin="round" stroke-width="4"/>
      <path id="Path_588" data-name="Path 588" d="M587.646,359.894v-6.1c0-3.5-1.788-6.335-3.984-6.352H306.811c-2.208,0-3.984,2.853-3.984,6.352v6.1c0,3.516,1.787,6.352,3.984,6.352h8.8a6.659,6.659,0,0,1,6.66,6.66,2.015,2.015,0,0,0,2.025,2.011h249.2a2.013,2.013,0,0,0,2.014-2.012,6.659,6.659,0,0,1,6.66-6.659h1.5C585.87,366.246,587.646,363.41,587.646,359.894Z" transform="translate(-16.824 -19.302)" fill="#671200" fill-rule="evenodd"/>
      <path id="Path_589" data-name="Path 589" d="M583.551,347.333l.014-1.889h-.014Zm2.095,6.352v6.1h3.778v-6.1Zm-2.11-4.463c.225,0,.709.156,1.231.986a6.672,6.672,0,0,1,.879,3.477h3.778a10.428,10.428,0,0,0-1.457-5.487,5.36,5.36,0,0,0-4.4-2.754l-.029,3.778Zm-276.837,0H583.551v-3.778H306.7Zm-2.095,4.463a6.714,6.714,0,0,1,.876-3.487c.519-.831,1-.977,1.218-.977v-3.778a5.325,5.325,0,0,0-4.422,2.751,10.466,10.466,0,0,0-1.451,5.49Zm0,6.1v-6.1h-3.778v6.1Zm2.095,4.463c-.216,0-.7-.145-1.216-.974a6.7,6.7,0,0,1-.878-3.49h-3.778a10.443,10.443,0,0,0,1.457,5.5,5.326,5.326,0,0,0,4.415,2.742Zm8.8,0h-8.8v3.778h8.8Zm8.685,8.671a.127.127,0,0,1-.136-.123h-3.778a3.905,3.905,0,0,0,3.914,3.9Zm249.2,0H324.18v3.778h249.2Zm.125-.123a.124.124,0,0,1-.125.123v3.778a3.9,3.9,0,0,0,3.9-3.9Zm10.047-8.548h-1.5v3.778h1.5Zm2.095-4.463a6.716,6.716,0,0,1-.875,3.492c-.518.824-1,.972-1.219.972v3.778a5.32,5.32,0,0,0,4.42-2.744,10.451,10.451,0,0,0,1.452-5.5h-3.778Zm-8.364,13.012a4.77,4.77,0,0,1,4.771-4.77v-3.778a8.549,8.549,0,0,0-8.549,8.548ZM315.5,368.024a4.771,4.771,0,0,1,4.771,4.771h3.778a8.549,8.549,0,0,0-8.548-8.548Z" transform="translate(-16.713 -19.191)" fill="#e5e1e2"/>
      <circle id="Ellipse_1549" data-name="Ellipse 1549" cx="5.318" cy="5.318" r="5.318" transform="translate(163.636 248.636) rotate(180)" fill="#fb558e"/>
      <circle id="Ellipse_1550" data-name="Ellipse 1550" cx="4.725" cy="4.725" r="4.725" transform="matrix(0.259, 0.966, -0.966, 0.259, 159.294, 350.388)" fill="#e5e1e2"/>
      <circle id="Ellipse_1551" data-name="Ellipse 1551" cx="6.285" cy="6.285" r="6.285" transform="translate(235.459 148.571) rotate(180)" fill="#e5e1e2"/>
      <circle id="Ellipse_1552" data-name="Ellipse 1552" cx="5.406" cy="5.406" r="5.406" transform="translate(722.25 213.716) rotate(90)" fill="#e5e1e2"/>
      <path id="Path_590" data-name="Path 590" d="M209.905,119h.13c.773,10.8,8.909,10.963,8.909,10.963s-8.972.173-8.972,12.648c0-12.475-8.972-12.648-8.972-12.648S209.134,129.8,209.905,119Z" transform="translate(-11.167 -6.611)" fill="#fff"/>
    </g>
  </g>
</svg>
