<svg id="undraw_audio_conversation_re_3t38" xmlns="http://www.w3.org/2000/svg" width="617.701" height="256.984" viewBox="0 0 617.701 256.984">
  <g id="Group_1454" data-name="Group 1454" transform="translate(61.072 0)">
    <path id="Path_560" data-name="Path 560" d="M348.589,123.309c6.579-1.482,13.714,3.758,14.646,10.368,1.125,7.976-6.256,14.1-12.232,17.879-6.576,4.155-13.711,7.868-17.332,15.133a25.6,25.6,0,0,0-1.01,20.473c4.981,12.678,19.22,17.042,28.669,25.512a27.072,27.072,0,0,1,5.845,7.166,22.508,22.508,0,0,1,2.562,11.758c-.374,8.278-4.855,15.667-10.938,21.072-6.264,5.566-14.817,8.369-20.115,15.04-2.272,2.861-3.993,6.478-3.736,10.216a11.333,11.333,0,0,0,4.473,8.339,8.4,8.4,0,0,0,4.359,1.572c.968.071.963-1.437,0-1.507-3.452-.252-6.019-3.183-6.946-6.349-1.079-3.687.24-7.479,2.395-10.509,2.454-3.451,5.983-5.894,9.534-8.1a83.449,83.449,0,0,0,10.491-7.106c6.056-5.173,10.679-12.206,11.763-20.2a23.842,23.842,0,0,0-6.482-20.372c-4.409-4.71-10.1-7.976-15.445-11.482s-10.823-7.46-13.93-13.216a23.4,23.4,0,0,1,6.43-29.506c3.244-2.586,6.92-4.563,10.411-6.784,6.079-3.868,12.61-9.522,12.829-17.319.186-6.605-5.416-12.577-11.784-13.656a12.47,12.47,0,0,0-4.858.123c-.946.213-.546,1.667.4,1.454h0Z" transform="translate(-170.313 -40.117)" fill="#3f3d56"/>
    <path id="Path_561" data-name="Path 561" d="M583.57,124.309c-6.579-1.482-13.714,3.758-14.646,10.368-1.125,7.976,6.256,14.1,12.232,17.879,6.576,4.155,13.711,7.868,17.332,15.133a25.6,25.6,0,0,1,1.01,20.473c-4.981,12.678-19.22,17.042-28.669,25.512a27.071,27.071,0,0,0-5.845,7.166,22.507,22.507,0,0,0-2.562,11.758c.374,8.278,4.855,15.667,10.938,21.072,6.264,5.566,14.817,8.369,20.115,15.04,2.272,2.861,3.993,6.478,3.736,10.216a11.333,11.333,0,0,1-4.473,8.339,8.4,8.4,0,0,1-4.359,1.572c-.968.071-.963-1.437,0-1.507,3.452-.252,6.019-3.183,6.946-6.349,1.079-3.687-.24-7.479-2.395-10.509-2.454-3.451-5.983-5.894-9.534-8.1a83.451,83.451,0,0,1-10.491-7.106c-6.056-5.173-10.679-12.206-11.763-20.2a23.843,23.843,0,0,1,6.482-20.372c4.409-4.71,10.1-7.975,15.445-11.482S593.892,195.753,597,190a23.4,23.4,0,0,0-6.43-29.506c-3.244-2.586-6.92-4.563-10.411-6.784-6.079-3.868-12.61-9.522-12.829-17.319-.186-6.605,5.416-12.577,11.784-13.656a12.47,12.47,0,0,1,4.858.123c.946.213.546,1.667-.4,1.454h0Z" transform="translate(-246.19 -40.447)" fill="#3f3d56"/>
    <path id="Path_562" data-name="Path 562" d="M743.1,60.583l-3.108,21.29L723,82.227V63.652Z" transform="translate(-299.693 -19.995)" fill="#ffb6b6"/>
    <path id="Path_563" data-name="Path 563" d="M743.233,60.583,740.4,82.543l-16.991.354V64.322Z" transform="translate(-299.827 -19.995)" opacity="0.1"/>
    <rect id="Rectangle_97" data-name="Rectangle 97" width="6.018" height="97.343" transform="translate(17.643 256.349) rotate(180)" fill="#f2f2f2"/>
    <rect id="Rectangle_98" data-name="Rectangle 98" width="6.018" height="97.343" transform="translate(41.713 256.349) rotate(180)" fill="#f2f2f2"/>
    <rect id="Rectangle_99" data-name="Rectangle 99" width="6.018" height="97.343" transform="translate(79.235 256.349) rotate(180)" fill="#f2f2f2"/>
    <rect id="Rectangle_100" data-name="Rectangle 100" width="6.018" height="97.343" transform="translate(90.561 256.349) rotate(180)" fill="#f2f2f2"/>
    <path id="Path_564" data-name="Path 564" d="M99.6,203.661l-8.189-42.529A13.736,13.736,0,0,1,103.244,144.9l43.786-5.307s6.018,49.2,6.018,46.725,59.645,6.195,37.344,18.584-82.476,8.849-90.795-1.239Z" transform="translate(-91.158 -46.071)" fill="#f2f2f2"/>
    <path id="Path_565" data-name="Path 565" d="M246.388,343.56l7.416,7.415,10.24,5.3-1.059,9.181-19.421-2.119-2.471-4.944.706-4.237-1.413-6.709Z" transform="translate(-140.409 -113.389)" fill="#a0616a"/>
    <path id="Path_566" data-name="Path 566" d="M261.468,367.129l.606-7.79,20.933,9.909s1.621,4.59-3.427,5.3-38.593.706-38.593-1.059-.918-10.8-.918-10.8l20.338,5.861,1.059-1.412Z" transform="translate(-140.305 -118.597)" fill="#2f2e41"/>
    <path id="Path_567" data-name="Path 567" d="M199.752,310.422l-5.363,9.011-2.616,11.228-9.159,1.231-2.723-19.346,4.183-3.612,4.281-.358,6.156-3.019Z" transform="translate(-120.443 -100.847)" fill="#a0616a"/>
    <path id="Path_568" data-name="Path 568" d="M182.915,330.77l7.7-1.328-4.456,22.727s-4.051,2.7-5.977-2.019-10.177-37.233-8.466-37.668,10.247-3.547,10.247-3.547l-.678,21.155,1.63.679Z" transform="translate(-117.669 -101.962)" fill="#2f2e41"/>
    <path id="Path_569" data-name="Path 569" d="M174.295,61.132l-1.062,21.592,16.991.354V64.5Z" transform="translate(-118.246 -20.176)" fill="#a0616a"/>
    <path id="Path_570" data-name="Path 570" d="M174.295,61.132l-1.062,21.592,16.991.354V64.5Z" transform="translate(-118.246 -20.176)" opacity="0.1"/>
    <path id="Path_571" data-name="Path 571" d="M129.959,194.277s-7.787,20.177-2.124,28.318,32.212,12.743,32.212,12.743L171.02,245.6l29.026,55.928,16.991-3.894-24.07-57.344S178.807,217.285,173.5,214.1s-15.2-15.147-15.2-15.147l-28.342-4.676Z" transform="translate(-102.582 -64.12)" fill="#2f2e41"/>
    <path id="Path_572" data-name="Path 572" d="M189.23,196.919l10.9,7.722s38.653,10.331,26.263,34.4-30.8,41.415-30.8,41.415l-16.283-9.2,26.194-36.813L159.5,206.476l29.734-9.557Z" transform="translate(-113.712 -64.992)" fill="#2f2e41"/>
    <path id="uuid-32c083fa-d2b9-413a-9921-933cc214e28e-79" d="M337.2,151.17c5.124,1.031,8.745,4.51,8.089,7.771s-5.342,5.068-10.468,4.036a13.081,13.081,0,0,1-5.632-2.538L307.531,155.8l1.858-8.559,21.631,4.094a13.081,13.081,0,0,1,6.177-.161Z" transform="translate(-162.57 -48.595)" fill="#a0616a"/>
    <path id="uuid-3df95b4d-9d99-4974-98f2-e22ed77160d1-80" d="M216.243,226.6c3.745,3.646,4.9,8.533,2.579,10.916s-7.237,1.359-10.983-2.289a13.08,13.08,0,0,1-3.354-5.188l-15.673-15.648,6.2-6.182,15.95,15.174a13.081,13.081,0,0,1,5.277,3.216Z" transform="translate(-123.388 -68.719)" fill="#a0616a"/>
    <path id="Path_573" data-name="Path 573" d="M173.553,82H151.525l-16.2,10.973,1.416,43.185S139.7,147,129.66,157.044c-6.018,6.018-3.894,9.557-3.894,9.557l35.751,2.832,21.415-6.195-7.787-19.469,1.416-6.018s14.513-10.265,12.035-20.885S182.933,84.3,182.933,84.3l-9.38-2.3Z" transform="translate(-102.46 -27.064)" fill="#ccc"/>
    <path id="Path_574" data-name="Path 574" d="M160.015,150.757,144.086,98.369s-8.141-2.832-11.681,4.248.913,34.159.913,34.159l18.556,30.619,29.734,22.654,7.433-8.141-29.026-31.15Z" transform="translate(-104.32 -32.281)" fill="#ccc"/>
    <path id="Path_575" data-name="Path 575" d="M249.963,119.643,207.234,85.4s-8.318,2.26-7.242,10.1,20.042,27.676,20.042,27.676l32.6,14.792,37.332,1.907,1.538-10.917-41.545-9.319Z" transform="translate(-127.046 -28.186)" fill="#ccc"/>
    <circle id="Ellipse_552" data-name="Ellipse 552" cx="14.867" cy="14.867" r="14.867" transform="translate(51.27 21.31)" fill="#a0616a"/>
    <rect id="Rectangle_101" data-name="Rectangle 101" width="6.018" height="97.343" transform="translate(477.914 159.006)" fill="#f2f2f2"/>
    <rect id="Rectangle_102" data-name="Rectangle 102" width="6.018" height="97.343" transform="translate(453.844 159.006)" fill="#f2f2f2"/>
    <rect id="Rectangle_103" data-name="Rectangle 103" width="6.018" height="97.343" transform="translate(416.322 159.006)" fill="#f2f2f2"/>
    <rect id="Rectangle_104" data-name="Rectangle 104" width="6.018" height="97.343" transform="translate(404.995 159.006)" fill="#f2f2f2"/>
    <path id="Path_576" data-name="Path 576" d="M771.058,203.661l8.189-42.529A13.736,13.736,0,0,0,767.411,144.9l-43.786-5.307s-6.018,49.2-6.018,46.725-59.645,6.195-37.344,18.584,82.476,8.849,90.795-1.239Z" transform="translate(-283.94 -46.071)" fill="#f2f2f2"/>
    <path id="Path_577" data-name="Path 577" d="M663.957,343.56l-7.416,7.415-10.24,5.3,1.059,9.181,19.421-2.119,2.472-4.944-.706-4.237,1.413-6.709Z" transform="translate(-274.379 -113.389)" fill="#ffb6b6"/>
    <path id="Path_578" data-name="Path 578" d="M639.258,367.129l-.606-7.79-20.933,9.909s-1.621,4.59,3.427,5.3,38.593.706,38.593-1.059.917-10.8.917-10.8l-20.338,5.861-1.059-1.412Z" transform="translate(-264.863 -118.597)" fill="#2f2e41"/>
    <path id="Path_579" data-name="Path 579" d="M640.5,269.559l-4.363,9.535-7.75,8.536,4.195,8.234,17.462-8.758.593-5.5-2.14-3.725-1.016-6.78Z" transform="translate(-268.467 -88.966)" fill="#ffb6b6"/>
    <path id="Path_580" data-name="Path 580" d="M625.207,297.419l-3.285-7.09-16.163,16.587s.082,4.867,5.059,3.769,36.416-12.8,35.8-14.452-2.908-10.446-2.908-10.446l-17.017,12.586-1.485-.954Z" transform="translate(-260.998 -94.322)" fill="#2f2e41"/>
    <path id="Path_581" data-name="Path 581" d="M747.081,194.277s7.787,20.177,2.124,28.318-32.212,12.743-32.212,12.743L706.02,245.6l-29.026,55.928L660,297.638l24.07-57.344s14.159-23.008,19.469-26.194,15.2-15.147,15.2-15.147l28.342-4.676Z" transform="translate(-278.901 -64.12)" fill="#2f2e41"/>
    <path id="Path_582" data-name="Path 582" d="M709.391,200.075,696.839,195.5s-30.475-25.923-43.232-2.046-16.56,48.881-16.56,48.881l16.829,8.162,15.391-42.479,49.168,21.956Z" transform="translate(-271.324 -60.511)" fill="#2f2e41"/>
    <path id="uuid-f8e61c27-c57f-4b74-9b81-e5dadccc9125-81" d="M637.912,218.236c-3.365,4-4.028,8.978-1.482,11.119s7.336.634,10.7-3.368a13.081,13.081,0,0,0,2.823-5.495L664,203.365l-6.787-5.536-14.365,16.683a13.082,13.082,0,0,0-4.932,3.724Z" transform="translate(-270.61 -65.292)" fill="#ffb6b6"/>
    <path id="uuid-b8d4031a-9298-4827-ae0e-c4fc86cbbe53-82" d="M690.384,226.6c-3.745,3.646-4.9,8.533-2.579,10.916s7.237,1.359,10.983-2.289a13.081,13.081,0,0,0,3.354-5.188l15.673-15.648-6.2-6.182-15.951,15.174A13.081,13.081,0,0,0,690.384,226.6Z" transform="translate(-287.681 -68.719)" fill="#ffb6b6"/>
    <path id="Path_583" data-name="Path 583" d="M717.176,82H739.2l16.2,10.973-1.416,43.185s-2.961,10.844,7.08,20.885c6.018,6.018,3.894,9.557,3.894,9.557l-35.751,2.832L707.8,163.239l7.787-19.469-1.416-6.018s-14.513-10.265-12.035-20.885S707.8,84.3,707.8,84.3l9.38-2.3Z" transform="translate(-292.711 -27.064)" fill="#00bfa6"/>
    <path id="Path_584" data-name="Path 584" d="M733.411,150.757,749.34,98.369s8.141-2.832,11.681,4.248-.913,34.159-.913,34.159l-18.556,30.619-29.734,22.654-7.433-8.141,29.026-31.15Z" transform="translate(-293.549 -32.281)" fill="#00bfa6"/>
    <path id="Path_585" data-name="Path 585" d="M676.28,140.474l12.074-53.408s7.914-3.417,11.959,3.386,1.575,34.134,1.575,34.134L685.61,156.474,657.6,181.232l-8.006-7.579Z" transform="translate(-275.467 -28.452)" fill="#00bfa6"/>
    <rect id="Rectangle_105" data-name="Rectangle 105" width="4.69" height="171.509" transform="translate(172.743 84.135)" fill="#3f3d56"/>
    <path id="Path_586" data-name="Path 586" d="M329.74,143.613,287.2,108.786l1.075-.8,42.542,34.827Z" transform="translate(-155.859 -35.64)" fill="#3f3d56"/>
    <path id="Path_587" data-name="Path 587" d="M348.554,110.61h-2.68a8.384,8.384,0,0,1-8.374-8.374V79.457a8.384,8.384,0,0,1,8.374-8.374h2.68a8.384,8.384,0,0,1,8.374,8.374v22.779A8.384,8.384,0,0,1,348.554,110.61Z" transform="translate(-172.461 -23.46)" fill="#00bfa6"/>
    <ellipse id="Ellipse_553" data-name="Ellipse 553" cx="12.394" cy="20.434" rx="12.394" ry="20.434" transform="translate(118.477 44.608)" fill="#00bfa6"/>
    <path id="Path_588" data-name="Path 588" d="M342.769,110.217c-7.183,0-20.769-.98-20.769-4.69,0-1.821,3.224-3.172,9.581-4.016l.176,1.328c-6.871.912-8.417,2.28-8.417,2.688,0,1.137,6.858,3.35,19.429,3.35s19.429-2.213,19.429-3.35c0-.572-2.366-2.021-9.678-2.841l.149-1.332c4.958.557,10.869,1.732,10.869,4.173,0,3.71-13.585,4.69-20.769,4.69Z" transform="translate(-167.346 -33.451)" fill="#3f3d56"/>
    <g id="Group_1452" data-name="Group 1452" transform="translate(318.124 44.608)">
      <rect id="Rectangle_106" data-name="Rectangle 106" width="4.69" height="171.509" transform="translate(23.449 211.036) rotate(180)" fill="#3f3d56"/>
      <path id="Path_589" data-name="Path 589" d="M598.773,143.613l42.542-34.828-1.075-.8L597.7,142.812Z" transform="translate(-576.462 -80.247)" fill="#3f3d56"/>
      <path id="Path_590" data-name="Path 590" d="M583.5,102.236V79.457a8.384,8.384,0,0,1,8.374-8.374h2.68a8.384,8.384,0,0,1,8.375,8.374v22.779a8.384,8.384,0,0,1-8.375,8.374h-2.68A8.384,8.384,0,0,1,583.5,102.236Z" transform="translate(-571.776 -68.068)" fill="#00bfa6"/>
      <ellipse id="Ellipse_554" data-name="Ellipse 554" cx="12.394" cy="20.434" rx="12.394" ry="20.434" transform="translate(52.927)" fill="#00bfa6"/>
      <path id="Path_591" data-name="Path 591" d="M586.769,110.217c-7.183,0-20.769-.98-20.769-4.69,0-2.441,5.911-3.617,10.869-4.173l.149,1.332c-7.312.82-9.678,2.269-9.678,2.841,0,1.137,6.858,3.35,19.429,3.35s19.429-2.213,19.429-3.35c0-.408-1.546-1.776-8.417-2.688l.176-1.328c6.357.843,9.581,2.194,9.581,4.016,0,3.71-13.585,4.69-20.769,4.69Z" transform="translate(-566 -78.059)" fill="#3f3d56"/>
    </g>
    <g id="Group_1453" data-name="Group 1453" transform="translate(414.886)">
      <circle id="Ellipse_555" data-name="Ellipse 555" cx="15.828" cy="15.828" r="15.828" transform="translate(1.32 17.516)" fill="#ffb6b6"/>
      <path id="Path_592" data-name="Path 592" d="M728.84,12.065c-.458.267-1.071-.137-1.218-.647a2.651,2.651,0,0,1,.194-1.553l.854-2.529a12.988,12.988,0,0,1,2.56-5.016c1.98-2.061,5.126-2.585,7.959-2.205,3.637.488,7.226,2.457,8.917,5.714s.971,7.8-2.085,9.834c4.355,4.992,5.874,10.556,5.634,17.176S744.2,45.552,739.5,50.216c-1.051-.637-2.006-3.622-1.428-4.706s-.25-2.341.466-3.339,1.314.592.591-.4c-.456-.627,1.325-2.068.647-2.444-3.282-1.814-4.374-5.905-6.435-9.038a15.4,15.4,0,0,0-11.245-6.762,10.634,10.634,0,0,0-7.135,1.63,6.686,6.686,0,0,0-2.878,6.461,5.738,5.738,0,0,1,1.194-8.981,9.373,9.373,0,0,1,1.99-8.835c2.121-2.338,10.723-1.94,13.819-1.325" transform="translate(-710.43 0)" fill="#2f2e41"/>
      <path id="Path_593" data-name="Path 593" d="M738.627,35.251c4.1.443,7.061,3.995,9.561,7.275,1.441,1.891,2.95,3.979,2.914,6.356-.037,2.4-1.643,4.464-2.411,6.742a10.161,10.161,0,0,0,2.956,10.7,5.9,5.9,0,0,1-6.653-4.615c-.593-3.448,2.02-6.775,1.711-10.259-.273-3.07-2.692-5.432-4.749-7.728s-3.988-5.341-3.042-8.274" transform="translate(-719.736 -11.634)" fill="#2f2e41"/>
    </g>
    <path id="Path_594" data-name="Path 594" d="M169.78,16.09s-5.96-4.3-11.257,4.966c-3.619,6.332-5.538,18.381-6.391,25.382a7.713,7.713,0,0,0,4.173,7.81l18.772,9.518s-6.953-26.487,2.649-30.46,9.27-2.98,9.27-2.98,7.615,16.554-2.318,23.838l8.277,5.3s5.628-31.122-4.635-37.082-7.946-10.264-18.541-6.291Z" transform="translate(-111.263 -4.803)" fill="#2f2e41"/>
  </g>
  <path id="Path_595" data-name="Path 595" d="M617.031,382.923H0v-1.34H617.031a.67.67,0,0,1,.67.67h0A.67.67,0,0,1,617.031,382.923Z" transform="translate(0 -125.939)" fill="#3f3d56"/>
</svg>
