<svg xmlns="http://www.w3.org/2000/svg" xmlns:xlink="http://www.w3.org/1999/xlink" width="116.638" height="126" viewBox="0 0 116.638 126">
  <defs>
    <clipPath id="clip-path">
      <rect id="Rectangle_91" data-name="Rectangle 91" width="109" height="109" transform="translate(892 2661)" fill="#fff" stroke="#707070" stroke-width="1"/>
    </clipPath>
  </defs>
  <g id="Group_1494" data-name="Group 1494" transform="translate(-873 -3885)">
    <ellipse id="Ellipse_33" data-name="Ellipse 33" cx="43.5" cy="44" rx="43.5" ry="44" transform="translate(902.638 3923)" fill="rgba(44,218,189,0.2)"/>
    <g id="Mask_Group_1" data-name="Mask Group 1" transform="translate(-19 1224)" clip-path="url(#clip-path)">
      <g id="Client_engagement" transform="translate(839.723 2619.281)">
        <path id="Path_334" data-name="Path 334" d="M52.713,99.98c2.178-3.921,4.356-8.059,6.535-11.98C62.515,81.9,66,76.02,69.485,69.921c1.96-3.485,4.792-4.139,8.059-2.4,1.525.871,3.05,1.743,4.356,2.4,3.05,1.96,3.921,4.139,3.05,7.624,1.743.436,3.267,1.089,5.01,1.525a.8.8,0,0,0,.653-.218c2.178-1.96,5.01-2.4,7.842-2.614,3.485-.436,6.97-.653,10.673-.871a14.329,14.329,0,0,1,6.1.871c2.4.871,4.792,1.743,7.406,2.614a8.167,8.167,0,0,0,2.4.218c1.525-.218,3.05-.871,4.139-1.089a21.025,21.025,0,0,1,0-3.7,4.94,4.94,0,0,1,2.4-3.485c1.96-1.089,3.921-2.178,5.663-3.267a5.126,5.126,0,0,1,7.188,1.96c1.089,1.743,2.178,3.7,3.05,5.446.653,1.307.436,2.614-.653,3.05a2.124,2.124,0,0,1-3.05-1.089c-1.089-1.743-1.96-3.485-3.05-5.228-.653-1.089-.871-1.089-1.96-.653-1.743.871-3.267,1.96-5.01,2.832a1.292,1.292,0,0,0-.653,1.96c5.446,9.366,10.673,18.951,16.119,28.317a1.292,1.292,0,0,0,1.96.653c1.743-.871,3.485-1.96,5.01-2.832a1.146,1.146,0,0,0,.436-1.96L153.347,94.1A2.185,2.185,0,0,1,154,90.832a2.124,2.124,0,0,1,3.05,1.089c1.089,1.96,2.4,4.139,3.485,6.1a5.22,5.22,0,0,1-2.178,7.406c-1.743.871-3.267,1.96-5.01,2.832-3.267,1.743-6.1,1.089-8.059-2.178,0-.218-.218-.218-.218-.436a11.39,11.39,0,0,0-3.7,2.614c-.218.218-.218.653,0,.653a7.2,7.2,0,0,1-4.792,11.327h0c-.436,4.792-1.96,6.535-6.317,7.842a7.942,7.942,0,0,1-2.614,6.317,7.515,7.515,0,0,1-6.752,1.307c-.871,3.05-2.832,5.228-6.317,5.663-3.267.436-5.446-1.525-7.842-3.485-1.96,1.525-3.7,3.05-5.881,4.574a7.112,7.112,0,0,1-11.109-3.921c-.218-.871-.218-1.525-.436-2.4-4.139-.871-6.1-3.485-6.1-7.842-4.574-1.525-6.1-3.485-6.317-7.842-.218,0-.653-.218-.871-.218a7.089,7.089,0,0,1-4.139-10.891c.436-.653.436-1.089-.218-1.525-1.089-.871-1.96-1.525-3.05-2.4a12.9,12.9,0,0,1-.871,1.307,5.049,5.049,0,0,1-6.752,1.96c-2.178-1.089-4.139-2.178-6.317-3.485a5.229,5.229,0,0,1-2.4-3.267A2.928,2.928,0,0,0,52.713,99.98ZM82.555,81.248c-3.921,6.97-7.842,13.723-11.545,20.475l5.228,3.921c1.743-1.307,3.7-3.05,5.663-4.356a7.124,7.124,0,0,1,11.109,3.267c0,.218.218.436.218.871,3.267-1.089,6.1-.436,8.277,2.178s1.96,5.663.218,8.713a6.88,6.88,0,0,1,3.7,4.792,7.848,7.848,0,0,1-1.089,5.881,7.9,7.9,0,0,1,4.139,6.752c0,.218.218.436.218.653a20.8,20.8,0,0,0,3.485,2.614,2.834,2.834,0,0,0,4.356-1.743,2.8,2.8,0,0,0-1.089-3.05c-1.089-.871-1.96-1.525-3.05-2.4a2.015,2.015,0,0,1-.436-2.614,2.064,2.064,0,0,1,2.4-1.089l1.307.653c1.743,1.525,3.485,2.832,5.446,4.356a2.9,2.9,0,0,0,4.356-.218c1.089-1.307.653-3.05-.653-4.356a3.824,3.824,0,0,1-1.089-.871c-1.525-1.307-3.267-2.614-4.792-3.921a1.872,1.872,0,0,1-.218-2.832,2.065,2.065,0,0,1,2.832-.436,4.751,4.751,0,0,1,1.089.871c1.743,1.307,3.267,2.832,5.01,3.921a2.85,2.85,0,0,0,4.574-1.96c.218-1.089-.436-1.96-1.307-2.832-1.743-1.307-3.485-2.832-5.228-4.139a2.155,2.155,0,0,1,.436-3.7,2.373,2.373,0,0,1,2.4.436c1.743,1.525,3.485,2.832,5.228,4.139a2.837,2.837,0,0,0,4.574-1.307,2.886,2.886,0,0,0-1.089-3.267c-2.614-1.96-5.01-4.139-7.624-6.1-5.01-3.7-9.8-7.406-14.812-11.109a11.93,11.93,0,0,0-9.8-2.178,39.434,39.434,0,0,1-5.01.653c-6.317,0-10.238-3.267-11.109-8.5a.982.982,0,0,0-.653-.653A54.553,54.553,0,0,1,82.555,81.248Zm48.792,0c-1.96.653-3.7,1.089-5.446,1.525a7.907,7.907,0,0,1-5.01-.218c-2.614-.871-5.228-1.96-7.842-2.832a10.175,10.175,0,0,0-3.7-.653c-3.7.218-7.406.653-10.891.871a25.326,25.326,0,0,0-3.921.871c-1.307.436-1.525,1.089-1.089,2.4a5.209,5.209,0,0,0,3.921,3.7,11.508,11.508,0,0,0,5.446,0,17.87,17.87,0,0,1,15.465,3.267c2.832,1.96,5.663,3.921,8.277,6.1,3.921,2.832,7.624,5.881,11.327,8.713l5.228-3.921C139.188,94.97,135.268,88.218,131.347,81.248Zm-67.525,23.96a4.752,4.752,0,0,0,.871-1.089c5.228-9.366,10.673-18.733,15.9-28.317.653-1.089.436-1.525-.653-1.96-1.525-.871-3.267-1.743-5.01-2.614-1.089-.653-1.307-.436-1.96.653C67.525,81.248,62.3,90.832,56.852,100.2a1.292,1.292,0,0,0,.653,1.96c1.743.871,3.267,1.743,5.01,2.832A2.763,2.763,0,0,1,63.822,105.208ZM98.891,112.4c0-1.743-.653-2.614-1.525-3.05a2.636,2.636,0,0,0-3.05.436c-3.7,3.05-7.624,6.1-11.327,9.149a3.086,3.086,0,0,0-.653,4.139,2.851,2.851,0,0,0,4.139.436c3.7-3.05,7.624-6.1,11.327-9.149A19.633,19.633,0,0,0,98.891,112.4Zm2.614,10.673c0-1.743-.653-2.614-1.525-3.05a2.676,2.676,0,0,0-3.267.436c-2.614,1.96-5.228,4.139-7.842,6.317a2.943,2.943,0,1,0,3.7,4.574c2.614-1.96,5.228-4.139,7.842-6.317A6.038,6.038,0,0,0,101.505,123.07ZM78.416,116.1a4.516,4.516,0,0,0,1.307-.436c2.832-2.178,5.663-4.356,8.5-6.752a2.958,2.958,0,0,0,.218-3.921,2.762,2.762,0,0,0-3.7-.653c-2.832,2.178-5.663,4.574-8.5,6.752a2.7,2.7,0,0,0-.653,3.05C76.02,115.664,76.891,116.1,78.416,116.1Zm25.921,17.644a3.087,3.087,0,0,0-1.525-3.05,2.607,2.607,0,0,0-3.05.218c-1.525,1.089-3.05,2.4-4.574,3.7a2.8,2.8,0,0,0-.436,3.921,2.831,2.831,0,0,0,4.139.436,35.546,35.546,0,0,0,4.356-3.7A3.335,3.335,0,0,0,104.337,133.743Z"/>
        <path id="Path_335" data-name="Path 335" d="M104.99,55.98V50.97a2.188,2.188,0,1,1,4.356,0V61.208a2.124,2.124,0,0,1-2.178,2.4,2.239,2.239,0,0,1-2.178-2.4A41.821,41.821,0,0,1,104.99,55.98Z"/>
        <path id="Path_336" data-name="Path 336" d="M94.97,65.564a2,2,0,0,1-1.525,2.178,2.068,2.068,0,0,1-2.4-.871c-.871-1.307-1.525-2.614-2.4-3.7-1.089-1.743-2.178-3.267-3.05-5.01a2.183,2.183,0,0,1,.436-3.267,2.048,2.048,0,0,1,3.05.871c1.743,2.832,3.485,5.663,5.446,8.5C94.753,64.911,94.753,65.347,94.97,65.564Z"/>
        <path id="Path_337" data-name="Path 337" d="M119.149,65.564a3.68,3.68,0,0,1,.436-1.089c1.743-2.832,3.485-5.663,5.446-8.5.871-1.307,1.96-1.525,3.05-.871s1.307,1.96.436,3.267c-1.743,2.832-3.7,5.663-5.446,8.713a2.19,2.19,0,0,1-2.4,1.089A2.642,2.642,0,0,1,119.149,65.564Z"/>
        <path id="Path_338" data-name="Path 338" d="M148.337,84.515a2.183,2.183,0,0,1,2.178-2.178,2.149,2.149,0,0,1,2.178,1.96,2.183,2.183,0,0,1-2.178,2.178A1.8,1.8,0,0,1,148.337,84.515Z"/>
      </g>
    </g>
  </g>
</svg>
