<svg xmlns="http://www.w3.org/2000/svg" width="124.284" height="132" viewBox="0 0 124.284 132">
  <g id="Group_137" data-name="Group 137" transform="translate(-268.716 -2671)">
    <ellipse id="Ellipse_32" data-name="Ellipse 32" cx="43.5" cy="44" rx="43.5" ry="44" transform="translate(306 2715)" fill="rgba(44,218,189,0.2)"/>
    <g id="Group_136" data-name="Group 136" transform="translate(3613.716 -225)">
      <g id="Market_Analt_Icon" transform="translate(-3345 2896)">
        <path id="Path_315" data-name="Path 315" d="M74.54,146.025v-3.068c0-1.5.614-2.113,2.113-2.113h4.431a.994.994,0,0,0,1.159-.818l1.841-5.726v-.409h-34.7c-4.84,0-7.635-2.795-7.635-7.635V75.81c0-4.772,2.795-7.567,7.567-7.567H60.7V56.381A1.738,1.738,0,0,1,62.678,54.4H68.95c1.5,0,2.113.614,2.113,2.113V67.97a.528.528,0,0,0,.068.2h1.636V44.86c0-2.113.477-2.59,2.522-2.59h5.385c1.977,0,2.454.477,2.454,2.522V68.175h1.7V51.541c0-1.7.545-2.25,2.25-2.25h5.863c1.7,0,2.25.545,2.25,2.25v16.7h21.133A15.672,15.672,0,0,1,112.647,55.9a14.931,14.931,0,0,1,6.681-10.839,15.583,15.583,0,0,1,19.633,1.841c4.84,4.7,6.953,13.634.75,21.405h2.181a6.837,6.837,0,0,1,6.817,6.817v52.014c0,3.886-3.068,6.749-7.09,6.817H106.171c.75,2.25,1.432,4.363,2.181,6.544.068.2.545.341.886.409,1.5.068,3,0,4.5,0s2.045.614,2.113,2.113v2.727a.912.912,0,0,0,.068.341H133.3a1.718,1.718,0,0,1,0,3.408,5.831,5.831,0,0,1-1.091,0H57.77c-1.568,0-2.386-.614-2.386-1.7,0-1.159.818-1.7,2.386-1.7H73.108A10.066,10.066,0,0,1,74.54,146.025ZM96.968,85.49V75.469c0-1.432.614-2.045,2.045-2.045h6.272c1.432,0,2.045.614,2.045,2.045V86.921c0,1.432-.614,2.045-2.045,2.045H50.68c-1.432,0-2.045-.614-2.045-2.045V75.469c0-1.432.614-2.045,2.045-2.045h6.135c1.568,0,2.181.614,2.181,2.181V85.49h1.636V71.719H49.249c-2.795,0-4.09,1.3-4.09,4.09v44.242H145.232c0-.136.068-.2.068-.273V75.2a3.391,3.391,0,0,0-3.477-3.408c-1.909,0-3.818-.068-5.726,0a5.121,5.121,0,0,0-1.772.341,15.783,15.783,0,0,1-12.68,0,4.388,4.388,0,0,0-1.636-.341H96.286a5.162,5.162,0,0,0-1.023.068v13.7A14.263,14.263,0,0,1,96.968,85.49Zm48.4,38.175H45.227v2.522c0,3.068,1.227,4.295,4.295,4.295h92.643a3.445,3.445,0,0,0,3.2-3.2C145.368,126.119,145.368,124.892,145.368,123.665ZM76.312,45.883V85.49h3.34V45.883Zm50.037.068c-4.636.954-7.908,3.409-9.544,7.7-1.568,4.022-.954,7.84,1.568,11.521l7.635-7.635a1.1,1.1,0,0,0,.341-.75ZM120.9,67.493c2.795,2.659,8.249,3.272,12.2,1.363a11.95,11.95,0,0,0,6.885-9.2H129.144a.977.977,0,0,0-.682.273Q124.781,63.709,120.9,67.493Zm-15.952,73.283c-.75-2.181-1.432-4.295-2.113-6.408a.985.985,0,0,0-.682-.477H88.583c-.273,0-.614.136-.682.341-.75,2.181-1.432,4.295-2.181,6.544ZM91.719,85.49V52.768h-3.34V85.49Zm-27.472,0h3.34V58.017h-3.34Zm65.648-39.4V56.177h10.021C139.71,51.4,134.529,46.224,129.894,46.088Zm-17.383,98.3H78.085v1.568H112.51ZM52.18,76.968V85.49h3.34V76.968Zm51.6,8.521V76.968h-3.34V85.49Zm-31.085,0v-13.7H71.131v13.7Zm12.134,0v-13.7H83.265v13.7Z" transform="translate(-41.75 -42.27)"/>
        <path id="Path_316" data-name="Path 316" d="M107.733,57.353c-2.045,2.931-5.931,3.681-8.93.2-2.113,1.568-4.158,3.136-6.272,4.7-3.681,2.727-7.294,5.454-10.975,8.249a3.427,3.427,0,0,0-1.091,1.5,5.217,5.217,0,0,1-9.68.273,2.276,2.276,0,0,0-1.227-1.159c-5.385-2.25-10.7-4.5-16.088-6.749-.273-.136-.614-.2-.886-.341-1.432,2.181-3.409,3.272-6,2.59a5.172,5.172,0,1,1,6-7.158A2.675,2.675,0,0,0,54.015,60.9c5.59,2.318,11.18,4.636,16.77,7.021,3.068-3.613,5.658-3.749,9.135-.477,3.408-2.522,6.817-5.113,10.225-7.7,2.386-1.772,4.7-3.545,7.09-5.317a3.56,3.56,0,0,0,.954-1.3,5.19,5.19,0,0,1,9.748-.136,2.1,2.1,0,0,0,.75,1.091c5.726,3.34,11.384,6.681,17.111,10.021.068.068.2.068.341.136a3.573,3.573,0,0,1,.682-.75,5.2,5.2,0,0,1,6.135-1.159,5.182,5.182,0,1,1-7.022,6.681,2.8,2.8,0,0,0-1.363-1.568c-5.317-3.068-10.635-6.2-15.952-9.271C108.483,57.762,108.142,57.626,107.733,57.353Zm-2.795-2.59a1.688,1.688,0,0,0-1.7-1.7,1.783,1.783,0,0,0-1.772,1.636,1.7,1.7,0,0,0,1.7,1.772A1.793,1.793,0,0,0,104.938,54.763ZM49.652,61.648a1.792,1.792,0,0,0-1.7-1.772,1.733,1.733,0,0,0-1.772,1.636,1.7,1.7,0,0,0,1.7,1.772A1.613,1.613,0,0,0,49.652,61.648Zm82.895,5.181a1.7,1.7,0,0,0-3.408,0,1.8,1.8,0,0,0,1.772,1.772A1.834,1.834,0,0,0,132.547,66.829ZM77.261,70.305a1.706,1.706,0,0,0-3.408-.136,1.7,1.7,0,0,0,1.7,1.772A1.592,1.592,0,0,0,77.261,70.305Z" transform="translate(-35.882 0.659)"/>
        <path id="Path_317" data-name="Path 317" d="M68.672,47.115h7.294c1.3,0,2.045.614,2.113,1.7,0,1.091-.75,1.772-2.113,1.772h-13.5a2.261,2.261,0,0,0-1.7.682c-1.772,1.841-3.613,3.681-5.454,5.522a1.746,1.746,0,0,1-2.59.273,1.693,1.693,0,0,1-.068-2.522c2.25-2.318,4.567-4.636,6.885-6.817a2.774,2.774,0,0,1,1.636-.545C63.7,47.046,66.218,47.115,68.672,47.115Z" transform="translate(18.586 -14.188)"/>
        <path id="Path_318" data-name="Path 318" d="M54.008,49.38h9.067c1.363,0,2.181.682,2.181,1.7,0,1.091-.818,1.7-2.181,1.7H44.941c-1.363,0-2.181-.682-2.181-1.7,0-1.091.818-1.7,2.181-1.7Z" transform="translate(-35.875 -0.911)"/>
        <path id="Path_319" data-name="Path 319" d="M59.333,56.407h-5.59c-1.363,0-2.113-.682-2.113-1.772,0-1.023.75-1.7,2.045-1.7H65.128A1.8,1.8,0,0,1,67.173,54.7c0,1.023-.818,1.7-2.045,1.7Z" transform="translate(15.722 19.739)"/>
        <path id="Path_320" data-name="Path 320" d="M57,52.17h2.454a1.793,1.793,0,0,1,1.772,1.7,1.758,1.758,0,0,1-1.772,1.772c-1.7.068-3.408.068-5.045,0a1.739,1.739,0,1,1,0-3.477Z" transform="translate(21.597 15.318)"/>
        <path id="Path_321" data-name="Path 321" d="M48.89,52.857h-.545A1.8,1.8,0,0,1,46.3,51.084c0-1.023.75-1.7,2.045-1.7h1.3a1.68,1.68,0,0,1,1.772,1.772,1.765,1.765,0,0,1-1.841,1.7Z" transform="translate(-15.283 -0.911)"/>
        <path id="Path_322" data-name="Path 322" d="M49.645,57.869h-4.84c-1.3,0-2.045-.682-2.045-1.7s.75-1.7,2.045-1.7h9.68c1.3,0,2.045.682,2.045,1.7s-.75,1.7-2.045,1.772C52.917,57.869,51.281,57.869,49.645,57.869Z" transform="translate(-35.875 28.639)"/>
        <path id="Path_323" data-name="Path 323" d="M47.508,57.9a4.453,4.453,0,0,1-.954,0,1.714,1.714,0,0,1,.068-3.408,8.933,8.933,0,0,1,1.909,0,1.717,1.717,0,0,1,1.636,1.7A1.658,1.658,0,0,1,48.6,57.9a2.928,2.928,0,0,1-1.091,0Z" transform="translate(-22.558 28.537)"/>
      </g>
    </g>
  </g>
</svg>
