<svg xmlns="http://www.w3.org/2000/svg" width="111.525" height="134" viewBox="0 0 111.525 134">
  <g id="Group_139" data-name="Group 139" transform="translate(-1454.361 -2669)">
    <ellipse id="Ellipse_34" data-name="Ellipse 34" cx="43.5" cy="44" rx="43.5" ry="44" transform="translate(1473 2715)" fill="rgba(44,218,189,0.2)"/>
    <g id="Profit_Icon" transform="translate(1429.259 2644)">
      <path id="Path_328" data-name="Path 328" d="M132.314,29.13c-.292,2.478-.534,4.956-.875,7.434-1.458,10.227-4.008,20.115-8.94,29.273a46.188,46.188,0,0,1-8.138,10.981c-3.79,3.765-7.555,7.531-11.3,11.345a2.76,2.76,0,0,0-.729,1.482c-.7,6.171-1.336,12.341-2.089,18.487a4.276,4.276,0,0,1-1.117,2.356C93.3,116.416,87.4,122.27,81.517,128.149a2.431,2.431,0,0,1-2.6.923,2.335,2.335,0,0,1-1.6-2.235q-.875-6.3-1.822-12.608a2.117,2.117,0,0,0-.583-1.069c-1.045-1.166-2.114-2.284-3.28-3.5-.34.51-.559.777-.729,1.069-1.579,2.6-3.134,5.223-4.713,7.847-1,1.628-2.527,1.846-3.863.486q-12.062-12.025-24.1-24.1c-1.385-1.385-1.19-2.842.486-3.863,2.891-1.749,5.782-3.474,8.794-5.272-1.263-1.312-2.478-2.6-3.717-3.863-.146-.146-.486-.146-.729-.17-3.984-.583-7.968-1.142-11.952-1.725-.389-.049-.8-.121-1.19-.194a2.166,2.166,0,0,1-1.239-3.62c.194-.219.389-.413.607-.632,5.782-5.782,11.564-11.539,17.321-17.345a4.436,4.436,0,0,1,2.867-1.312q9.146-.947,18.293-2.016a2.614,2.614,0,0,0,1.385-.7C72.6,50.848,76.051,47.5,79.4,44a53.344,53.344,0,0,1,20.8-13.118,100.416,100.416,0,0,1,26.844-5.685A9.728,9.728,0,0,0,128.208,25h4.13C132.314,26.385,132.314,27.769,132.314,29.13Zm-49.68,73.244c.34-.316.632-.583.9-.85,8.916-8.916,17.758-17.88,26.747-26.7a51.374,51.374,0,0,0,12.438-20.285,1.25,1.25,0,0,0-.243-1.093q-9.292-9.365-18.633-18.633a1.147,1.147,0,0,0-1-.219A50.811,50.811,0,0,0,82.926,46.645C71.872,57.82,60.721,68.9,49.6,80c-.267.267-.534.559-.656.68L76.561,108.3c.875-.85,1.846-1.822,3.061-3.037a4.628,4.628,0,0,1-1-.632q-7.725-7.689-15.4-15.4a7.665,7.665,0,0,1-.923-1.069,2.116,2.116,0,0,1,2.915-2.939,6.332,6.332,0,0,1,1.069.923q7.689,7.689,15.4,15.4C82,101.816,82.294,102.058,82.634,102.374ZM43.327,93.41,63.9,113.986c1.409-2.356,2.915-4.859,4.3-7.191L50.518,89.11C48.138,90.543,45.66,92.025,43.327,93.41ZM63.539,59.837c-4.64.534-8.989,1-13.337,1.53A2.034,2.034,0,0,0,49.134,62Q42.356,68.74,35.6,75.53a7.774,7.774,0,0,0-.534.656c.243.073.389.146.51.17,3.11.462,6.243.923,9.353,1.312a1.946,1.946,0,0,0,1.385-.559C51.83,71.643,57.3,66.153,62.786,60.663,62.956,60.468,63.151,60.25,63.539,59.837ZM97.453,93.872c-.267.194-.364.243-.437.316-5.66,5.66-11.345,11.321-16.981,17.005a1.693,1.693,0,0,0-.389,1.239c.267,2.186.607,4.373.923,6.559.17,1.069.316,2.162.486,3.231a1.368,1.368,0,0,1,.292.1c.243-.267.437-.559.7-.826,3.863-3.887,7.677-7.8,11.637-11.588a7.522,7.522,0,0,0,2.648-5.3C96.53,101.087,97.064,97.564,97.453,93.872Zm11.053-61.049,15.985,15.985a101.586,101.586,0,0,0,3.3-19.289A100.928,100.928,0,0,0,108.506,32.822Z" transform="translate(4.289 0)"/>
      <path id="Path_329" data-name="Path 329" d="M27.7,86.78c-2.016.049-3.134-1.725-2.332-3.134a5.513,5.513,0,0,1,.972-1.166Q37.049,71.73,47.786,61l.534-.534a2.175,2.175,0,1,1,3.061,3.085,5.547,5.547,0,0,1-.534.534Q40.134,74.84,29.372,85.541A10.751,10.751,0,0,1,27.7,86.78Z" transform="translate(0 49.726)"/>
      <path id="Path_330" data-name="Path 330" d="M44.432,59.287a10.152,10.152,0,0,1-1.142,1.871c-4.3,4.349-8.648,8.673-13,13a2.246,2.246,0,0,1-3.28.243,2.184,2.184,0,0,1,.194-3.28q6.523-6.559,13.07-13.07a2.024,2.024,0,0,1,2.551-.534A7.154,7.154,0,0,1,44.432,59.287Z" transform="translate(1.799 46.1)"/>
      <path id="Path_331" data-name="Path 331" d="M49.181,64.887a5.881,5.881,0,0,1-.826,1.336c-4.3,4.349-8.648,8.673-13,13a2.184,2.184,0,1,1-3.085-3.037q6.486-6.523,13-13a2.2,2.2,0,0,1,3.911,1.7Z" transform="translate(9.052 53.351)"/>
      <path id="Path_332" data-name="Path 332" d="M74.985,49.45A13.058,13.058,0,1,1,61.94,36.38,13.058,13.058,0,0,1,74.985,49.45Zm-4.348-.073a8.7,8.7,0,0,0-17.394.121,8.7,8.7,0,1,0,17.394-.121Z" transform="translate(33.972 16.266)"/>
      <path id="Path_333" data-name="Path 333" d="M41.648,51.386a2.126,2.126,0,0,1-2.138-2.138,2.15,2.15,0,1,1,4.3.024A2.126,2.126,0,0,1,41.648,51.386Z" transform="translate(20.593 31.603)"/>
    </g>
  </g>
</svg>
